<svg xmlns="http://www.w3.org/2000/svg" viewBox="0 0 1280 720" preserveAspectRatio="xMidYMid slice">
  <defs>
    <linearGradient id="bg" x1="0" y1="0" x2="1" y2="1">
      <stop offset="0%" stop-color="#1a0f0f"/>
      <stop offset="100%" stop-color="#0a0707"/>
    </linearGradient>
    <linearGradient id="red" x1="0" y1="0" x2="1" y2="0">
      <stop offset="0%" stop-color="#e88a7a"/>
      <stop offset="50%" stop-color="#d96552"/>
      <stop offset="100%" stop-color="#b04030"/>
    </linearGradient>
    <radialGradient id="glow" cx="50%" cy="50%" r="60%">
      <stop offset="0%" stop-color="#d96552" stop-opacity="0.12"/>
      <stop offset="100%" stop-color="#d96552" stop-opacity="0"/>
    </radialGradient>
  </defs>

  <rect width="1280" height="720" fill="url(#bg)"/>
  <circle cx="1060" cy="190" r="340" fill="url(#glow)"/>
  <circle cx="200" cy="570" r="250" fill="url(#glow)"/>

  <line x1="80" y1="80" x2="200" y2="80" stroke="#d96552" stroke-width="1"/>
  <text x="220" y="84" font-family="Georgia, serif" font-style="italic" font-size="20" fill="#f0d0c8">Lincoln</text>
  <text x="310" y="84" font-family="Georgia, serif" font-size="12" letter-spacing="6" fill="#d96552">BRIEF</text>
  <text x="1200" y="84" font-family="monospace" font-size="11" letter-spacing="3" fill="#d96552" text-anchor="end">2026.05.20 · KR ECONOMY ISSUE</text>

  <text x="80" y="175" font-family="monospace" font-size="13" letter-spacing="5" fill="#d96552">— 경제 이슈 —</text>
  <text x="80" y="258" font-family="Playfair Display, Georgia, serif" font-size="56" font-weight="500" fill="#f0d0c8">현대차·기아 동반 하락</text>
  <text x="80" y="328" font-family="Playfair Display, Georgia, serif" font-size="48" font-style="italic" fill="url(#red)">자동차 관세 25%</text>
  <text x="80" y="378" font-family="Pretendard, sans-serif" font-size="18" fill="#b89080">한국 충격파의 좌표 — 완성차부터 철강까지</text>

  <g transform="translate(80, 455)">
    <g>
      <line x1="0" y1="0" x2="50" y2="0" stroke="#d96552" stroke-width="1.5"/>
      <text x="0" y="28" font-family="monospace" font-size="11" letter-spacing="3" fill="#b89080">현대차</text>
      <text x="0" y="66" font-family="Playfair Display, Georgia, serif" font-size="32" fill="#f0d0c8">586,000원</text>
      <polygon points="0,84 14,84 7,70" fill="#d96552"/>
      <text x="22" y="91" font-family="monospace" font-size="14" fill="#d96552">−2.98%</text>
    </g>
    <g transform="translate(280, 0)">
      <line x1="0" y1="0" x2="50" y2="0" stroke="#d96552" stroke-width="1.5"/>
      <text x="0" y="28" font-family="monospace" font-size="11" letter-spacing="3" fill="#b89080">기아</text>
      <text x="0" y="66" font-family="Playfair Display, Georgia, serif" font-size="32" fill="#f0d0c8">148,600원</text>
      <polygon points="0,84 14,84 7,70" fill="#d96552"/>
      <text x="22" y="91" font-family="monospace" font-size="14" fill="#d96552">−4.07%</text>
    </g>
    <g transform="translate(560, 0)">
      <line x1="0" y1="0" x2="50" y2="0" stroke="#d96552" stroke-width="1.5"/>
      <text x="0" y="28" font-family="monospace" font-size="11" letter-spacing="3" fill="#b89080">현대차 고점 대비</text>
      <text x="0" y="66" font-family="Playfair Display, Georgia, serif" font-size="32" fill="url(#red)">−17.7%</text>
      <text x="0" y="91" font-family="monospace" font-size="13" fill="#b89080">712,000원 → 586,000원</text>
    </g>
    <g transform="translate(900, 0)">
      <line x1="0" y1="0" x2="50" y2="0" stroke="#d96552" stroke-width="1.5"/>
      <text x="0" y="28" font-family="monospace" font-size="11" letter-spacing="3" fill="#b89080">POSCO (공급망)</text>
      <text x="0" y="66" font-family="Playfair Display, Georgia, serif" font-size="32" fill="#f0d0c8">416,500원</text>
      <polygon points="0,84 14,84 7,70" fill="#d96552"/>
      <text x="22" y="91" font-family="monospace" font-size="14" fill="#d96552">−5.45%</text>
    </g>
  </g>

  <line x1="80" y1="660" x2="1200" y2="660" stroke="#d96552" stroke-opacity="0.3" stroke-width="1"/>
  <text x="80" y="690" font-family="monospace" font-size="11" letter-spacing="3" fill="#d96552" opacity="0.8">MAY 20 · 2026 · WED · ECONOMY ISSUE</text>
  <text x="1200" y="690" font-family="monospace" font-size="11" letter-spacing="3" fill="#d96552" opacity="0.8" text-anchor="end">SOURCE · KRX · YAHOO</text>
</svg>
