<svg xmlns="http://www.w3.org/2000/svg" viewBox="0 0 1280 720" preserveAspectRatio="xMidYMid slice">
  <defs>
    <linearGradient id="bg" x1="0" y1="0" x2="1" y2="1">
      <stop offset="0%" stop-color="#1a1510"/>
      <stop offset="100%" stop-color="#0a0907"/>
    </linearGradient>
    <linearGradient id="gold" x1="0" y1="0" x2="1" y2="0">
      <stop offset="0%" stop-color="#f0d88c"/>
      <stop offset="50%" stop-color="#d8b878"/>
      <stop offset="100%" stop-color="#b89a5a"/>
    </linearGradient>
    <radialGradient id="glow" cx="50%" cy="50%" r="60%">
      <stop offset="0%" stop-color="#d8b878" stop-opacity="0.10"/>
      <stop offset="100%" stop-color="#d8b878" stop-opacity="0"/>
    </radialGradient>
  </defs>

  <rect width="1280" height="720" fill="url(#bg)"/>
  <circle cx="1050" cy="180" r="320" fill="url(#glow)"/>
  <circle cx="220" cy="600" r="260" fill="url(#glow)"/>

  <line x1="80" y1="80" x2="200" y2="80" stroke="#d8b878" stroke-width="1"/>
  <text x="220" y="84" font-family="Georgia, serif" font-style="italic" font-size="20" fill="#f5edd9">Lincoln</text>
  <text x="310" y="84" font-family="Georgia, serif" font-size="12" letter-spacing="6" fill="#d8b878">BRIEF</text>
  <text x="1200" y="84" font-family="monospace" font-size="11" letter-spacing="3" fill="#d8b878" text-anchor="end">2026.05.20 · KR DAILY</text>

  <text x="80" y="180" font-family="monospace" font-size="13" letter-spacing="5" fill="#d8b878">— 5월 20일 한국 시장 —</text>
  <text x="80" y="260" font-family="Playfair Display, Georgia, serif" font-size="56" font-weight="500" fill="#f5edd9">NVDA D-0,</text>
  <text x="80" y="328" font-family="Playfair Display, Georgia, serif" font-size="56" font-style="italic" fill="url(#gold)">두 번째 날의 속락</text>
  <text x="80" y="378" font-family="Pretendard, sans-serif" font-size="18" fill="#988e72">POSCO −5.45% · 기아 −4.07% · LG에너지솔루션 −3.62%</text>

  <g transform="translate(80, 460)">
    <g>
      <line x1="0" y1="0" x2="50" y2="0" stroke="#d8b878" stroke-width="1.5"/>
      <text x="0" y="28" font-family="monospace" font-size="11" letter-spacing="3" fill="#988e72">POSCO홀딩스</text>
      <text x="0" y="68" font-family="Playfair Display, Georgia, serif" font-size="30" fill="#f5edd9">416,500원</text>
      <polygon points="0,86 14,86 7,72" fill="#d96552"/>
      <text x="22" y="93" font-family="monospace" font-size="14" fill="#d96552">−5.45%</text>
    </g>
    <g transform="translate(290, 0)">
      <line x1="0" y1="0" x2="50" y2="0" stroke="#d8b878" stroke-width="1.5"/>
      <text x="0" y="28" font-family="monospace" font-size="11" letter-spacing="3" fill="#988e72">기아</text>
      <text x="0" y="68" font-family="Playfair Display, Georgia, serif" font-size="30" fill="#f5edd9">148,600원</text>
      <polygon points="0,86 14,86 7,72" fill="#d96552"/>
      <text x="22" y="93" font-family="monospace" font-size="14" fill="#d96552">−4.07%</text>
    </g>
    <g transform="translate(580, 0)">
      <line x1="0" y1="0" x2="50" y2="0" stroke="#d8b878" stroke-width="1.5"/>
      <text x="0" y="28" font-family="monospace" font-size="11" letter-spacing="3" fill="#988e72">SK하이닉스</text>
      <text x="0" y="68" font-family="Playfair Display, Georgia, serif" font-size="30" fill="#f5edd9">1,713,000원</text>
      <polygon points="0,86 14,86 7,72" fill="#d96552"/>
      <text x="22" y="93" font-family="monospace" font-size="14" fill="#d96552">−1.83%</text>
    </g>
    <g transform="translate(880, 0)">
      <line x1="0" y1="0" x2="50" y2="0" stroke="#d8b878" stroke-width="1.5"/>
      <text x="0" y="28" font-family="monospace" font-size="11" letter-spacing="3" fill="#988e72">NVDA</text>
      <text x="0" y="68" font-family="Playfair Display, Georgia, serif" font-size="30" fill="#f5edd9">$220.61</text>
      <polygon points="0,86 14,86 7,72" fill="#d96552"/>
      <text x="22" y="93" font-family="monospace" font-size="14" fill="#d96552">−0.77%</text>
    </g>
  </g>

  <line x1="80" y1="660" x2="1200" y2="660" stroke="#d8b878" stroke-opacity="0.3" stroke-width="1"/>
  <text x="80" y="690" font-family="monospace" font-size="11" letter-spacing="3" fill="#d8b878" opacity="0.8">MAY 20 · 2026 · WED · POST-CLOSE</text>
  <text x="1200" y="690" font-family="monospace" font-size="11" letter-spacing="3" fill="#d8b878" opacity="0.8" text-anchor="end">SOURCE · KRX · YAHOO</text>
</svg>
