<svg xmlns="http://www.w3.org/2000/svg" viewBox="0 0 1280 720" preserveAspectRatio="xMidYMid slice">
  <defs>
    <linearGradient id="bg" x1="0" y1="0" x2="1" y2="1">
      <stop offset="0%" stop-color="#1a1510"/>
      <stop offset="100%" stop-color="#0a0907"/>
    </linearGradient>
    <linearGradient id="gold" x1="0" y1="0" x2="1" y2="0">
      <stop offset="0%" stop-color="#f0d88c"/>
      <stop offset="50%" stop-color="#d8b878"/>
      <stop offset="100%" stop-color="#b89a5a"/>
    </linearGradient>
    <radialGradient id="glow" cx="50%" cy="50%" r="60%">
      <stop offset="0%" stop-color="#d8b878" stop-opacity="0.10"/>
      <stop offset="100%" stop-color="#d8b878" stop-opacity="0"/>
    </radialGradient>
  </defs>

  <rect width="1280" height="720" fill="url(#bg)"/>
  <circle cx="1050" cy="180" r="320" fill="url(#glow)"/>
  <circle cx="220" cy="600" r="260" fill="url(#glow)"/>

  <line x1="80" y1="80" x2="200" y2="80" stroke="#d8b878" stroke-width="1"/>
  <text x="220" y="84" font-family="Georgia, serif" font-style="italic" font-size="20" fill="#f5edd9">Lincoln</text>
  <text x="310" y="84" font-family="Georgia, serif" font-size="12" letter-spacing="6" fill="#d8b878">BRIEF</text>
  <text x="1200" y="84" font-family="monospace" font-size="11" letter-spacing="3" fill="#d8b878" text-anchor="end">2026.05.19 · KR DAILY</text>

  <text x="80" y="180" font-family="monospace" font-size="13" letter-spacing="5" fill="#d8b878">— 5월 19일 한국 시장 —</text>
  <text x="80" y="260" font-family="Playfair Display, Georgia, serif" font-size="58" font-weight="500" fill="#f5edd9">신고가 다음 달의</text>
  <text x="80" y="328" font-family="Playfair Display, Georgia, serif" font-size="58" font-style="italic" fill="url(#gold)">첫 큰 청구서</text>
  <text x="80" y="378" font-family="Pretendard, sans-serif" font-size="18" fill="#988e72">미국 30년물 5.1% · 미·이란 답보 · NVDA 실적 D-1 — 3중 압박</text>

  <g transform="translate(80, 460)">
    <g>
      <line x1="0" y1="0" x2="50" y2="0" stroke="#d8b878" stroke-width="1.5"/>
      <text x="0" y="28" font-family="monospace" font-size="11" letter-spacing="3" fill="#988e72">KOSPI</text>
      <text x="0" y="68" font-family="Playfair Display, Georgia, serif" font-size="34" fill="#f5edd9">7,271.66</text>
      <polygon points="0,86 14,86 7,72" fill="#d96552"/>
      <text x="22" y="93" font-family="monospace" font-size="14" fill="#d96552">−3.25%</text>
    </g>
    <g transform="translate(300, 0)">
      <line x1="0" y1="0" x2="50" y2="0" stroke="#d8b878" stroke-width="1.5"/>
      <text x="0" y="28" font-family="monospace" font-size="11" letter-spacing="3" fill="#988e72">KOSDAQ</text>
      <text x="0" y="68" font-family="Playfair Display, Georgia, serif" font-size="34" fill="#f5edd9">1,084.36</text>
      <polygon points="0,86 14,86 7,72" fill="#d96552"/>
      <text x="22" y="93" font-family="monospace" font-size="14" fill="#d96552">−2.41%</text>
    </g>
    <g transform="translate(600, 0)">
      <line x1="0" y1="0" x2="50" y2="0" stroke="#d8b878" stroke-width="1.5"/>
      <text x="0" y="28" font-family="monospace" font-size="11" letter-spacing="3" fill="#988e72">USD/KRW</text>
      <text x="0" y="68" font-family="Playfair Display, Georgia, serif" font-size="34" fill="#f5edd9">1,508.68</text>
      <polygon points="0,76 14,76 7,90" fill="#6ba368"/>
      <text x="22" y="93" font-family="monospace" font-size="14" fill="#6ba368">+1.37%</text>
    </g>
    <g transform="translate(900, 0)">
      <line x1="0" y1="0" x2="50" y2="0" stroke="#d8b878" stroke-width="1.5"/>
      <text x="0" y="28" font-family="monospace" font-size="11" letter-spacing="3" fill="#988e72">52W KOSPI</text>
      <text x="0" y="68" font-family="Playfair Display, Georgia, serif" font-size="34" fill="url(#gold)">+188.9%</text>
      <text x="0" y="93" font-family="monospace" font-size="13" fill="#988e72">신고점 대비 -10%</text>
    </g>
  </g>

  <line x1="80" y1="660" x2="1200" y2="660" stroke="#d8b878" stroke-opacity="0.3" stroke-width="1"/>
  <text x="80" y="690" font-family="monospace" font-size="11" letter-spacing="3" fill="#d8b878" opacity="0.8">MAY 19 · 2026 · TUE · POST-CLOSE</text>
  <text x="1200" y="690" font-family="monospace" font-size="11" letter-spacing="3" fill="#d8b878" opacity="0.8" text-anchor="end">SOURCE · KRX · YAHOO</text>
</svg>
