<svg xmlns="http://www.w3.org/2000/svg" viewBox="0 0 1280 720" preserveAspectRatio="xMidYMid slice">
  <defs>
    <linearGradient id="bg" x1="0" y1="0" x2="1" y2="1">
      <stop offset="0%" stop-color="#0a1510"/>
      <stop offset="100%" stop-color="#050c07"/>
    </linearGradient>
    <linearGradient id="green" x1="0" y1="0" x2="1" y2="0">
      <stop offset="0%" stop-color="#8ad88a"/>
      <stop offset="50%" stop-color="#5ab85a"/>
      <stop offset="100%" stop-color="#3a8a3a"/>
    </linearGradient>
    <radialGradient id="glow" cx="50%" cy="50%" r="60%">
      <stop offset="0%" stop-color="#5ab85a" stop-opacity="0.12"/>
      <stop offset="100%" stop-color="#5ab85a" stop-opacity="0"/>
    </radialGradient>
  </defs>

  <rect width="1280" height="720" fill="url(#bg)"/>
  <circle cx="1060" cy="190" r="330" fill="url(#glow)"/>
  <circle cx="200" cy="600" r="260" fill="url(#glow)"/>

  <line x1="80" y1="80" x2="200" y2="80" stroke="#5ab85a" stroke-width="1"/>
  <text x="220" y="84" font-family="Georgia, serif" font-style="italic" font-size="20" fill="#d8f0d8">Lincoln</text>
  <text x="310" y="84" font-family="Georgia, serif" font-size="12" letter-spacing="6" fill="#5ab85a">BRIEF</text>
  <text x="1200" y="84" font-family="monospace" font-size="11" letter-spacing="3" fill="#5ab85a" text-anchor="end">2026.05.20 · KR ECONOMY ISSUE</text>

  <text x="80" y="175" font-family="monospace" font-size="13" letter-spacing="5" fill="#5ab85a">— 경제 이슈 —</text>
  <text x="80" y="250" font-family="Playfair Display, Georgia, serif" font-size="56" font-weight="500" fill="#d8f0d8">전기차 공급망 재평가</text>
  <text x="80" y="320" font-family="Playfair Display, Georgia, serif" font-size="50" font-style="italic" fill="url(#green)">동시 약세의 의미</text>
  <text x="80" y="373" font-family="Pretendard, sans-serif" font-size="17" fill="#6a9a6a">LGE · 기아 · POSCO — EV 공급망 삼각형이 흔들린다</text>

  <g transform="translate(80, 440)">
    <g>
      <line x1="0" y1="0" x2="50" y2="0" stroke="#5ab85a" stroke-width="1.5"/>
      <text x="0" y="28" font-family="monospace" font-size="11" letter-spacing="2" fill="#6a9a6a">LG에너지솔루션</text>
      <text x="0" y="68" font-family="Playfair Display, Georgia, serif" font-size="32" fill="#d8f0d8">387,500</text>
      <polygon points="0,86 14,86 7,72" fill="#d96552"/>
      <text x="22" y="93" font-family="monospace" font-size="14" fill="#d96552">−3.13%</text>
    </g>
    <g transform="translate(300, 0)">
      <line x1="0" y1="0" x2="50" y2="0" stroke="#5ab85a" stroke-width="1.5"/>
      <text x="0" y="28" font-family="monospace" font-size="11" letter-spacing="2" fill="#6a9a6a">기아</text>
      <text x="0" y="68" font-family="Playfair Display, Georgia, serif" font-size="32" fill="#d8f0d8">149,600</text>
      <polygon points="0,86 14,86 7,72" fill="#d96552"/>
      <text x="22" y="93" font-family="monospace" font-size="14" fill="#d96552">−3.42%</text>
    </g>
    <g transform="translate(560, 0)">
      <line x1="0" y1="0" x2="50" y2="0" stroke="#5ab85a" stroke-width="1.5"/>
      <text x="0" y="28" font-family="monospace" font-size="11" letter-spacing="2" fill="#6a9a6a">POSCO홀딩스</text>
      <text x="0" y="68" font-family="Playfair Display, Georgia, serif" font-size="32" fill="#d8f0d8">419,000</text>
      <polygon points="0,86 14,86 7,72" fill="#d96552"/>
      <text x="22" y="93" font-family="monospace" font-size="14" fill="#d96552">−4.88%</text>
    </g>
    <g transform="translate(860, 0)">
      <line x1="0" y1="0" x2="50" y2="0" stroke="#5ab85a" stroke-width="1.5"/>
      <text x="0" y="28" font-family="monospace" font-size="11" letter-spacing="2" fill="#6a9a6a">현대차 (비교)</text>
      <text x="0" y="68" font-family="Playfair Display, Georgia, serif" font-size="32" fill="#d8f0d8">596,000</text>
      <polygon points="0,86 14,86 7,72" fill="#d96552"/>
      <text x="22" y="93" font-family="monospace" font-size="14" fill="#d96552">−1.32%</text>
    </g>
  </g>

  <line x1="80" y1="660" x2="1200" y2="660" stroke="#5ab85a" stroke-opacity="0.3" stroke-width="1"/>
  <text x="80" y="690" font-family="monospace" font-size="11" letter-spacing="3" fill="#5ab85a" opacity="0.8">MAY 20 · 2026 · WED</text>
  <text x="1200" y="690" font-family="monospace" font-size="11" letter-spacing="3" fill="#5ab85a" opacity="0.8" text-anchor="end">SOURCE · KRX · YAHOO</text>
</svg>
