<svg xmlns="http://www.w3.org/2000/svg" viewBox="0 0 1280 720" preserveAspectRatio="xMidYMid slice">
  <defs>
    <linearGradient id="bg" x1="0" y1="0" x2="1" y2="1">
      <stop offset="0%" stop-color="#0f1520"/>
      <stop offset="100%" stop-color="#070a0f"/>
    </linearGradient>
    <linearGradient id="blue" x1="0" y1="0" x2="1" y2="0">
      <stop offset="0%" stop-color="#7ab4e8"/>
      <stop offset="50%" stop-color="#5a8fd0"/>
      <stop offset="100%" stop-color="#3a6aaa"/>
    </linearGradient>
    <radialGradient id="glow" cx="50%" cy="50%" r="60%">
      <stop offset="0%" stop-color="#5a8fd0" stop-opacity="0.12"/>
      <stop offset="100%" stop-color="#5a8fd0" stop-opacity="0"/>
    </radialGradient>
  </defs>

  <rect width="1280" height="720" fill="url(#bg)"/>
  <circle cx="1100" cy="200" r="350" fill="url(#glow)"/>
  <circle cx="180" cy="560" r="240" fill="url(#glow)"/>

  <line x1="80" y1="80" x2="200" y2="80" stroke="#5a8fd0" stroke-width="1"/>
  <text x="220" y="84" font-family="Georgia, serif" font-style="italic" font-size="20" fill="#d0e4f5">Lincoln</text>
  <text x="310" y="84" font-family="Georgia, serif" font-size="12" letter-spacing="6" fill="#5a8fd0">BRIEF</text>
  <text x="1200" y="84" font-family="monospace" font-size="11" letter-spacing="3" fill="#5a8fd0" text-anchor="end">2026.05.20 · KR STOCK ANALYSIS</text>

  <text x="80" y="175" font-family="monospace" font-size="13" letter-spacing="5" fill="#5a8fd0">— 종목 분석 —</text>
  <text x="80" y="255" font-family="Playfair Display, Georgia, serif" font-size="62" font-weight="500" fill="#d0e4f5">POSCO홀딩스</text>
  <text x="80" y="320" font-family="Playfair Display, Georgia, serif" font-size="52" font-style="italic" fill="url(#blue)">−5.45%</text>
  <text x="80" y="372" font-family="Pretendard, sans-serif" font-size="18" fill="#8aa0b8">철강·배터리소재 이중 역풍 — 고점 대비 −22.1%</text>

  <g transform="translate(80, 450)">
    <g>
      <line x1="0" y1="0" x2="50" y2="0" stroke="#5a8fd0" stroke-width="1.5"/>
      <text x="0" y="28" font-family="monospace" font-size="11" letter-spacing="3" fill="#8aa0b8">5/20 종가</text>
      <text x="0" y="66" font-family="Playfair Display, Georgia, serif" font-size="32" fill="#d0e4f5">416,500원</text>
      <polygon points="0,84 14,84 7,70" fill="#d96552"/>
      <text x="22" y="91" font-family="monospace" font-size="14" fill="#d96552">−24,000원</text>
    </g>
    <g transform="translate(330, 0)">
      <line x1="0" y1="0" x2="50" y2="0" stroke="#5a8fd0" stroke-width="1.5"/>
      <text x="0" y="28" font-family="monospace" font-size="11" letter-spacing="3" fill="#8aa0b8">30일 고점</text>
      <text x="0" y="66" font-family="Playfair Display, Georgia, serif" font-size="32" fill="#d0e4f5">535,000원</text>
      <polygon points="0,84 14,84 7,70" fill="#d96552"/>
      <text x="22" y="91" font-family="monospace" font-size="14" fill="#d96552">−22.1%</text>
    </g>
    <g transform="translate(660, 0)">
      <line x1="0" y1="0" x2="50" y2="0" stroke="#5a8fd0" stroke-width="1.5"/>
      <text x="0" y="28" font-family="monospace" font-size="11" letter-spacing="3" fill="#8aa0b8">30일 전</text>
      <text x="0" y="66" font-family="Playfair Display, Georgia, serif" font-size="32" fill="#d0e4f5">345,500원</text>
      <polygon points="0,76 14,76 7,90" fill="#6ba368"/>
      <text x="22" y="91" font-family="monospace" font-size="14" fill="#6ba368">+20.5%</text>
    </g>
    <g transform="translate(940, 0)">
      <line x1="0" y1="0" x2="50" y2="0" stroke="#5a8fd0" stroke-width="1.5"/>
      <text x="0" y="28" font-family="monospace" font-size="11" letter-spacing="3" fill="#8aa0b8">낙폭 순위</text>
      <text x="0" y="66" font-family="Playfair Display, Georgia, serif" font-size="32" fill="url(#blue)">KR 1위</text>
      <text x="0" y="91" font-family="monospace" font-size="13" fill="#8aa0b8">대형주 기준</text>
    </g>
  </g>

  <line x1="80" y1="660" x2="1200" y2="660" stroke="#5a8fd0" stroke-opacity="0.3" stroke-width="1"/>
  <text x="80" y="690" font-family="monospace" font-size="11" letter-spacing="3" fill="#5a8fd0" opacity="0.8">MAY 20 · 2026 · WED · STOCK ANALYSIS</text>
  <text x="1200" y="690" font-family="monospace" font-size="11" letter-spacing="3" fill="#5a8fd0" opacity="0.8" text-anchor="end">SOURCE · KRX · YAHOO</text>
</svg>
