<svg xmlns="http://www.w3.org/2000/svg" viewBox="0 0 1280 720" width="1280" height="720">
  <defs>
    <linearGradient id="bg" x1="0%" y1="0%" x2="100%" y2="100%">
      <stop offset="0%" style="stop-color:#080c12"/>
      <stop offset="100%" style="stop-color:#0f1520"/>
    </linearGradient>
    <linearGradient id="blueLine" x1="0%" y1="0%" x2="100%" y2="0%">
      <stop offset="0%" style="stop-color:#5677b0;stop-opacity:0"/>
      <stop offset="30%" style="stop-color:#5677b0;stop-opacity:1"/>
      <stop offset="100%" style="stop-color:#5677b0;stop-opacity:0.3"/>
    </linearGradient>
  </defs>

  <!-- Background -->
  <rect width="1280" height="720" fill="url(#bg)"/>

  <!-- Subtle grid lines -->
  <line x1="0" y1="240" x2="1280" y2="240" stroke="#5677b0" stroke-opacity="0.08" stroke-width="1"/>
  <line x1="0" y1="480" x2="1280" y2="480" stroke="#5677b0" stroke-opacity="0.08" stroke-width="1"/>
  <line x1="427" y1="0" x2="427" y2="720" stroke="#5677b0" stroke-opacity="0.06" stroke-width="1"/>
  <line x1="853" y1="0" x2="853" y2="720" stroke="#5677b0" stroke-opacity="0.06" stroke-width="1"/>

  <!-- Top blue accent bar -->
  <rect x="0" y="0" width="1280" height="4" fill="url(#blueLine)"/>

  <!-- Lincoln Brief mark (top left) -->
  <text x="48" y="54" font-family="Georgia, serif" font-size="18" fill="#5677b0" font-weight="bold" letter-spacing="3">LINCOLN BRIEF</text>
  <text x="48" y="76" font-family="Georgia, serif" font-size="13" fill="#3a5070" letter-spacing="2">KR STOCK ANALYSIS</text>

  <!-- Edition label (top right) -->
  <rect x="1060" y="28" width="180" height="36" rx="3" fill="#5677b0" fill-opacity="0.15" stroke="#5677b0" stroke-opacity="0.5" stroke-width="1"/>
  <text x="1150" y="51" font-family="Georgia, serif" font-size="14" fill="#5677b0" text-anchor="middle" letter-spacing="1">2026.06.19 · 11:00</text>

  <!-- Ticker label -->
  <text x="640" y="118" font-family="Georgia, serif" font-size="20" fill="#5677b0" text-anchor="middle" letter-spacing="6">SK하이닉스 · 000660</text>

  <!-- Diamond decorative element -->
  <polygon points="640,138 648,146 640,154 632,146" fill="#5677b0" fill-opacity="0.7"/>

  <!-- Main price -->
  <text x="640" y="250" font-family="Georgia, serif" font-size="108" fill="#ffffff" text-anchor="middle" font-weight="bold" letter-spacing="-2">278만원</text>

  <!-- Subtitle -->
  <text x="640" y="294" font-family="Georgia, serif" font-size="20" fill="#5677b0" text-anchor="middle" letter-spacing="2">2,781,000원</text>

  <!-- Change indicator -->
  <polygon points="550,318 562,302 574,318" fill="#4ade80"/>
  <text x="584" y="320" font-family="Georgia, serif" font-size="26" fill="#4ade80" font-weight="bold">+3.58%   +96,000원</text>

  <!-- ATH badge -->
  <rect x="436" y="338" width="408" height="36" rx="4" fill="#5677b0" fill-opacity="0.18" stroke="#5677b0" stroke-opacity="0.5" stroke-width="1"/>
  <text x="640" y="362" font-family="Georgia, serif" font-size="16" fill="#5677b0" text-anchor="middle" letter-spacing="2">역사적 신고점 재경신</text>

  <!-- Gold separator line -->
  <line x1="160" y1="398" x2="1120" y2="398" stroke="#5677b0" stroke-opacity="0.25" stroke-width="1"/>

  <!-- Bottom metrics -->
  <!-- 280만원까지 -->
  <text x="213" y="452" font-family="Georgia, serif" font-size="14" fill="#3a5070" text-anchor="middle" letter-spacing="1">280만원까지</text>
  <text x="213" y="490" font-family="Georgia, serif" font-size="28" fill="#ffffff" text-anchor="middle" font-weight="bold">19,000원</text>
  <text x="213" y="516" font-family="Georgia, serif" font-size="16" fill="#a0a0a0" text-anchor="middle">+0.68%</text>

  <!-- Divider -->
  <line x1="427" y1="428" x2="427" y2="540" stroke="#5677b0" stroke-opacity="0.2" stroke-width="1"/>

  <!-- AVGO -->
  <text x="640" y="452" font-family="Georgia, serif" font-size="14" fill="#3a5070" text-anchor="middle" letter-spacing="1">AVGO (전일 미국)</text>
  <text x="640" y="490" font-family="Georgia, serif" font-size="28" fill="#4ade80" text-anchor="middle" font-weight="bold">+9.20%</text>
  <text x="640" y="516" font-family="Georgia, serif" font-size="16" fill="#a0a0a0" text-anchor="middle">AI반도체 공급망 신호</text>

  <!-- Divider -->
  <line x1="853" y1="428" x2="853" y2="540" stroke="#5677b0" stroke-opacity="0.2" stroke-width="1"/>

  <!-- NVDA -->
  <text x="1067" y="452" font-family="Georgia, serif" font-size="14" fill="#3a5070" text-anchor="middle" letter-spacing="1">NVDA (전일 미국)</text>
  <text x="1067" y="490" font-family="Georgia, serif" font-size="28" fill="#4ade80" text-anchor="middle" font-weight="bold">$210.69</text>
  <text x="1067" y="516" font-family="Georgia, serif" font-size="16" fill="#4ade80" text-anchor="middle">+1.58%</text>

  <!-- Separator -->
  <line x1="160" y1="560" x2="1120" y2="560" stroke="#5677b0" stroke-opacity="0.25" stroke-width="1"/>

  <!-- Sparkline suggestion (simple bar chart) -->
  <!-- Simplified price progression -->
  <text x="160" y="600" font-family="Georgia, serif" font-size="13" fill="#3a5070" letter-spacing="1">30일 추이</text>
  <!-- bars representing sparkline progression (simplified) -->
  <rect x="240" y="618" width="8" height="20" fill="#5677b0" fill-opacity="0.3" rx="1"/>
  <rect x="254" y="614" width="8" height="24" fill="#5677b0" fill-opacity="0.35" rx="1"/>
  <rect x="268" y="608" width="8" height="30" fill="#5677b0" fill-opacity="0.4" rx="1"/>
  <rect x="282" y="600" width="8" height="38" fill="#5677b0" fill-opacity="0.45" rx="1"/>
  <rect x="296" y="595" width="8" height="43" fill="#5677b0" fill-opacity="0.5" rx="1"/>
  <rect x="310" y="588" width="8" height="50" fill="#5677b0" fill-opacity="0.55" rx="1"/>
  <rect x="324" y="580" width="8" height="58" fill="#5677b0" fill-opacity="0.6" rx="1"/>
  <rect x="338" y="572" width="8" height="66" fill="#5677b0" fill-opacity="0.65" rx="1"/>
  <rect x="352" y="565" width="8" height="73" fill="#5677b0" fill-opacity="0.7" rx="1"/>
  <rect x="366" y="558" width="8" height="80" fill="#5677b0" fill-opacity="0.75" rx="1"/>
  <rect x="380" y="550" width="8" height="88" fill="#5677b0" fill-opacity="0.8" rx="1"/>
  <rect x="394" y="543" width="8" height="95" fill="#5677b0" fill-opacity="0.85" rx="1"/>
  <rect x="408" y="534" width="8" height="104" fill="#5677b0" fill-opacity="0.9" rx="1"/>
  <rect x="422" y="525" width="8" height="113" fill="#4ade80" fill-opacity="0.9" rx="1"/>

  <!-- Price labels at right end -->
  <text x="450" y="528" font-family="Georgia, serif" font-size="13" fill="#4ade80">▶ 278만원</text>

  <!-- Bottom Lincoln mark -->
  <text x="640" y="690" font-family="Georgia, serif" font-size="13" fill="#3a5070" text-anchor="middle" letter-spacing="2">— Lincoln Brief · 정보 제공 목적, 투자 권유 아님 —</text>
</svg>
