<svg xmlns="http://www.w3.org/2000/svg" viewBox="0 0 1280 720" preserveAspectRatio="xMidYMid slice">
  <defs>
    <linearGradient id="bg" x1="0" y1="0" x2="1" y2="1">
      <stop offset="0%" stop-color="#141008"/>
      <stop offset="100%" stop-color="#08070a"/>
    </linearGradient>
    <linearGradient id="gold" x1="0" y1="0" x2="1" y2="0">
      <stop offset="0%" stop-color="#e8cc88"/>
      <stop offset="50%" stop-color="#d8b878"/>
      <stop offset="100%" stop-color="#b89848"/>
    </linearGradient>
    <radialGradient id="glow1" cx="50%" cy="50%" r="60%">
      <stop offset="0%" stop-color="#d8b878" stop-opacity="0.10"/>
      <stop offset="100%" stop-color="#d8b878" stop-opacity="0"/>
    </radialGradient>
    <radialGradient id="glow2" cx="50%" cy="50%" r="60%">
      <stop offset="0%" stop-color="#60a060" stop-opacity="0.08"/>
      <stop offset="100%" stop-color="#60a060" stop-opacity="0"/>
    </radialGradient>
  </defs>

  <rect width="1280" height="720" fill="url(#bg)"/>
  <circle cx="1050" cy="160" r="360" fill="url(#glow1)"/>
  <circle cx="200" cy="580" r="220" fill="url(#glow2)"/>

  <!-- 좌상단 브랜드 -->
  <line x1="80" y1="80" x2="200" y2="80" stroke="#d8b878" stroke-width="1"/>
  <text x="220" y="84" font-family="Georgia, serif" font-style="italic" font-size="20" fill="#e8d8a0">Lincoln</text>
  <text x="310" y="84" font-family="Georgia, serif" font-size="12" letter-spacing="6" fill="#d8b878">BRIEF</text>
  <text x="1200" y="84" font-family="monospace" font-size="11" letter-spacing="3" fill="#d8b878" text-anchor="end">2026.06.09 · DAILY BRIEF · SLOT 01</text>

  <!-- 에디션 라벨 -->
  <text x="80" y="175" font-family="monospace" font-size="13" letter-spacing="5" fill="#d8b878">— 6/9 새벽 정리 · TSLA +5.28% · FOMC(6/11) D-2 —</text>

  <!-- 메인 헤드라인 -->
  <text x="80" y="265" font-family="Playfair Display, Georgia, serif" font-size="46" font-weight="600" fill="#e8d8a0">S&amp;P +0.71% · NASDAQ +1.47%</text>
  <text x="80" y="322" font-family="Playfair Display, Georgia, serif" font-size="28" font-style="italic" fill="url(#gold)">TSLA +5.28% 주도 · 기술주 부분 복원 · 달러 약세</text>
  <text x="80" y="370" font-family="sans-serif" font-size="18" fill="#a09060">AAPL +2.46% · AVGO +2.40% · NVDA +1.83%  |  USD/KRW 1,526</text>

  <!-- 데이터 그리드 -->
  <g transform="translate(80, 445)">
    <!-- S&P -->
    <g>
      <line x1="0" y1="0" x2="50" y2="0" stroke="#60a060" stroke-width="1.5"/>
      <text x="0" y="28" font-family="monospace" font-size="11" letter-spacing="3" fill="#a09060">S&amp;P 500</text>
      <text x="0" y="68" font-family="Georgia, serif" font-size="28" fill="#e8d8a0">7,436</text>
      <polygon points="0,90 14,90 7,76" fill="#60a060"/>
      <text x="22" y="90" font-family="monospace" font-size="13" fill="#60a060">+0.71%</text>
    </g>
    <!-- NASDAQ -->
    <g transform="translate(210, 0)">
      <line x1="0" y1="0" x2="50" y2="0" stroke="#60a060" stroke-width="1.5"/>
      <text x="0" y="28" font-family="monospace" font-size="11" letter-spacing="3" fill="#a09060">NASDAQ</text>
      <text x="0" y="68" font-family="Georgia, serif" font-size="28" fill="#e8d8a0">26,088</text>
      <polygon points="0,90 14,90 7,76" fill="#60a060"/>
      <text x="22" y="90" font-family="monospace" font-size="13" fill="#60a060">+1.47%</text>
    </g>
    <!-- TSLA -->
    <g transform="translate(430, 0)">
      <line x1="0" y1="0" x2="50" y2="0" stroke="#60a060" stroke-width="1.5"/>
      <text x="0" y="28" font-family="monospace" font-size="11" letter-spacing="3" fill="#a09060">TSLA</text>
      <text x="0" y="68" font-family="Georgia, serif" font-size="28" fill="#e8d8a0">$411</text>
      <polygon points="0,90 14,90 7,76" fill="#60a060"/>
      <text x="22" y="90" font-family="monospace" font-size="13" fill="#60a060">+5.28%</text>
    </g>
    <!-- USD/KRW -->
    <g transform="translate(640, 0)">
      <line x1="0" y1="0" x2="50" y2="0" stroke="#60a060" stroke-width="1.5"/>
      <text x="0" y="28" font-family="monospace" font-size="11" letter-spacing="3" fill="#a09060">USD/KRW</text>
      <text x="0" y="68" font-family="Georgia, serif" font-size="28" fill="#e8d8a0">1,526</text>
      <polygon points="7,90 0,76 14,76" fill="#60a060"/>
      <text x="22" y="90" font-family="monospace" font-size="13" fill="#60a060">−0.46%</text>
    </g>
    <!-- DOW -->
    <g transform="translate(870, 0)">
      <line x1="0" y1="0" x2="50" y2="0" stroke="#a09060" stroke-width="1.5"/>
      <text x="0" y="28" font-family="monospace" font-size="11" letter-spacing="3" fill="#a09060">DOW</text>
      <text x="0" y="68" font-family="Georgia, serif" font-size="28" fill="#e8d8a0">50,875</text>
      <polygon points="0,90 14,90 7,76" fill="#a09060"/>
      <text x="22" y="90" font-family="monospace" font-size="13" fill="#a09060">+0.02%</text>
    </g>
  </g>

  <!-- 하단 구분선 -->
  <line x1="80" y1="580" x2="1200" y2="580" stroke="#d8b878" stroke-width="0.5" stroke-opacity="0.4"/>
  <text x="80" y="608" font-family="monospace" font-size="11" fill="#806040" letter-spacing="2">6/8 US CLOSE · FOMC 6/11 D-2 · GOLD +0.61% · WTI +0.80% · BTC $63,574 · US10Y 4.556%</text>
  <text x="80" y="635" font-family="monospace" font-size="10" fill="#604830">SLOT 01 · 1ST UPDATE · lincoln-brief.vercel.app</text>
</svg>
