<svg xmlns="http://www.w3.org/2000/svg" viewBox="0 0 1280 720" width="1280" height="720">
  <defs>
    <linearGradient id="bg" x1="0%" y1="0%" x2="100%" y2="100%">
      <stop offset="0%" style="stop-color:#0d0a06"/>
      <stop offset="100%" style="stop-color:#1a140a"/>
    </linearGradient>
    <linearGradient id="goldGrad" x1="0%" y1="0%" x2="100%" y2="0%">
      <stop offset="0%" style="stop-color:#d8b878"/>
      <stop offset="100%" style="stop-color:#f0d090"/>
    </linearGradient>
  </defs>

  <!-- Background -->
  <rect width="1280" height="720" fill="url(#bg)"/>

  <!-- Left gold accent bar -->
  <rect x="0" y="0" width="6" height="720" fill="#d8b878"/>

  <!-- Top label bar -->
  <rect x="0" y="0" width="1280" height="3" fill="#d8b878" opacity="0.6"/>

  <!-- LINCOLN BRIEF wordmark -->
  <text x="48" y="56" font-family="'Georgia', serif" font-size="18" letter-spacing="6" fill="#d8b878" opacity="0.9">LINCOLN BRIEF</text>

  <!-- Edition label top-right -->
  <rect x="1040" y="28" width="200" height="36" rx="4" fill="#d8b878" opacity="0.15"/>
  <rect x="1040" y="28" width="200" height="36" rx="4" fill="none" stroke="#d8b878" stroke-width="1" opacity="0.5"/>
  <text x="1140" y="52" font-family="'Arial', sans-serif" font-size="13" letter-spacing="2" fill="#d8b878" text-anchor="middle">US DAILY BRIEF</text>

  <!-- Date -->
  <text x="48" y="92" font-family="'Arial', sans-serif" font-size="14" fill="#888" letter-spacing="1">2026.06.11  |  SLOT 06  |  KST 06:00</text>

  <!-- Divider line -->
  <line x1="48" y1="110" x2="640" y2="110" stroke="#d8b878" stroke-width="1" opacity="0.3"/>

  <!-- Main headline -->
  <text x="48" y="186" font-family="'Georgia', serif" font-size="46" fill="#f5f0e8" font-weight="bold">DOW 50,000 붕괴</text>
  <text x="48" y="244" font-family="'Georgia', serif" font-size="34" fill="#d8b878">FOMC · 이란 이중 충격</text>

  <!-- Key stats row -->
  <!-- S&P 500 -->
  <rect x="48" y="292" width="218" height="92" rx="6" fill="#1e180e" stroke="#d8b878" stroke-width="1" opacity="0.7"/>
  <text x="157" y="322" font-family="'Arial', sans-serif" font-size="13" fill="#888" text-anchor="middle" letter-spacing="1">S&amp;P 500</text>
  <text x="157" y="356" font-family="'Georgia', serif" font-size="26" fill="#f5f0e8" text-anchor="middle" font-weight="bold">7,266.99</text>
  <polygon points="144,368 164,368 154,380" fill="#ef4444"/>
  <text x="169" y="379" font-family="'Arial', sans-serif" font-size="16" fill="#ef4444">−1.62%</text>

  <!-- NASDAQ -->
  <rect x="282" y="292" width="218" height="92" rx="6" fill="#1e180e" stroke="#d8b878" stroke-width="1" opacity="0.7"/>
  <text x="391" y="322" font-family="'Arial', sans-serif" font-size="13" fill="#888" text-anchor="middle" letter-spacing="1">NASDAQ</text>
  <text x="391" y="356" font-family="'Georgia', serif" font-size="26" fill="#f5f0e8" text-anchor="middle" font-weight="bold">25,169</text>
  <polygon points="378,368 398,368 388,380" fill="#ef4444"/>
  <text x="403" y="379" font-family="'Arial', sans-serif" font-size="16" fill="#ef4444">−1.98%</text>

  <!-- DOW highlight — special alert styling -->
  <rect x="516" y="282" width="230" height="112" rx="6" fill="#1a0606" stroke="#ef4444" stroke-width="2"/>
  <text x="631" y="314" font-family="'Arial', sans-serif" font-size="13" fill="#ef4444" text-anchor="middle" letter-spacing="1">DOW ⚠ 50K 이탈</text>
  <text x="631" y="350" font-family="'Georgia', serif" font-size="28" fill="#f5f0e8" text-anchor="middle" font-weight="bold">49,918</text>
  <polygon points="618,362 638,362 628,374" fill="#ef4444"/>
  <text x="643" y="373" font-family="'Arial', sans-serif" font-size="16" fill="#ef4444" font-weight="bold">−1.87%</text>

  <!-- WTI highlight box -->
  <rect x="762" y="282" width="470" height="224" rx="8" fill="#1a0a06" stroke="#f97316" stroke-width="2"/>
  <text x="997" y="320" font-family="'Arial', sans-serif" font-size="14" fill="#f97316" text-anchor="middle" letter-spacing="2">WTI CRUDE OIL</text>
  <text x="997" y="392" font-family="'Georgia', serif" font-size="64" fill="#f5f0e8" text-anchor="middle" font-weight="bold">$91.85</text>
  <polygon points="950,428 970,416 990,428" fill="#f97316"/>
  <text x="997" y="448" font-family="'Arial', sans-serif" font-size="28" fill="#f97316" text-anchor="middle" font-weight="bold">+4.14%</text>
  <text x="997" y="490" font-family="'Arial', sans-serif" font-size="13" fill="#f97316" text-anchor="middle" opacity="0.8">이틀 연속 $91 이상 · 이란 지정학</text>

  <!-- Mover highlights -->
  <text x="48" y="440" font-family="'Arial', sans-serif" font-size="14" fill="#888" letter-spacing="1">TOP MOVERS</text>
  <line x1="48" y1="448" x2="740" y2="448" stroke="#333" stroke-width="1"/>

  <!-- AVGO -->
  <text x="48" y="478" font-family="'Arial', sans-serif" font-size="16" fill="#ccc">AVGO</text>
  <polygon points="130,468 150,468 140,480" fill="#ef4444"/>
  <text x="155" y="478" font-family="'Arial', sans-serif" font-size="16" fill="#ef4444" font-weight="bold">−5.12%</text>
  <text x="248" y="478" font-family="'Arial', sans-serif" font-size="14" fill="#666">$372.10  ★ 지지선 이탈</text>

  <!-- TSLA -->
  <text x="48" y="514" font-family="'Arial', sans-serif" font-size="16" fill="#ccc">TSLA</text>
  <polygon points="118,504 138,504 128,516" fill="#ef4444"/>
  <text x="143" y="514" font-family="'Arial', sans-serif" font-size="16" fill="#ef4444">−3.80%</text>
  <text x="228" y="514" font-family="'Arial', sans-serif" font-size="14" fill="#666">$381.59</text>

  <!-- NVDA -->
  <text x="420" y="514" font-family="'Arial', sans-serif" font-size="16" fill="#ccc">NVDA</text>
  <polygon points="500,504 520,504 510,516" fill="#ef4444"/>
  <text x="525" y="514" font-family="'Arial', sans-serif" font-size="16" fill="#ef4444">−3.73%</text>
  <text x="608" y="514" font-family="'Arial', sans-serif" font-size="14" fill="#666">$200.42</text>

  <!-- WMT positive -->
  <text x="48" y="550" font-family="'Arial', sans-serif" font-size="16" fill="#ccc">WMT</text>
  <polygon points="108,552 118,540 128,552" fill="#22c55e"/>
  <text x="133" y="550" font-family="'Arial', sans-serif" font-size="16" fill="#22c55e">+1.44%</text>
  <text x="218" y="550" font-family="'Arial', sans-serif" font-size="14" fill="#666">$120.59</text>

  <!-- AAPL positive -->
  <text x="420" y="550" font-family="'Arial', sans-serif" font-size="16" fill="#ccc">AAPL</text>
  <polygon points="490,552 500,540 510,552" fill="#22c55e"/>
  <text x="515" y="550" font-family="'Arial', sans-serif" font-size="16" fill="#22c55e">+0.35%</text>
  <text x="600" y="550" font-family="'Arial', sans-serif" font-size="14" fill="#666">$291.58</text>

  <!-- US10Y / Gold row -->
  <text x="48" y="590" font-family="'Arial', sans-serif" font-size="14" fill="#888">US10Y</text>
  <text x="130" y="590" font-family="'Arial', sans-serif" font-size="16" fill="#d8b878" font-weight="bold">4.542%</text>
  <text x="260" y="590" font-family="'Arial', sans-serif" font-size="14" fill="#888">GOLD</text>
  <text x="320" y="590" font-family="'Arial', sans-serif" font-size="14" fill="#ef4444">$4,094  −3.89%</text>
  <text x="500" y="590" font-family="'Arial', sans-serif" font-size="14" fill="#888">USD/KRW</text>
  <text x="610" y="590" font-family="'Arial', sans-serif" font-size="14" fill="#22c55e">1,520.96</text>

  <!-- Bottom accent line -->
  <rect x="0" y="717" width="1280" height="3" fill="#d8b878" opacity="0.4"/>

  <!-- Lincoln signature -->
  <text x="1232" y="700" font-family="'Georgia', serif" font-size="16" fill="#d8b878" text-anchor="end" opacity="0.7">— Lincoln</text>
</svg>
