<svg xmlns="http://www.w3.org/2000/svg" viewBox="0 0 1280 720" width="1280" height="720">
  <defs>
    <linearGradient id="bg" x1="0%" y1="0%" x2="100%" y2="100%">
      <stop offset="0%" style="stop-color:#0f0c08"/>
      <stop offset="100%" style="stop-color:#1a1510"/>
    </linearGradient>
  </defs>

  <!-- Background -->
  <rect width="1280" height="720" fill="url(#bg)"/>

  <!-- Top accent line -->
  <rect x="0" y="0" width="1280" height="3" fill="#d8b878"/>

  <!-- Left accent bar -->
  <rect x="60" y="60" width="4" height="600" fill="#d8b878" opacity="0.3"/>

  <!-- Edition label top right -->
  <rect x="1050" y="36" width="190" height="32" rx="4" fill="#d8b878" opacity="0.15"/>
  <text x="1145" y="57" font-family="Georgia, serif" font-size="13" fill="#d8b878" text-anchor="middle" letter-spacing="2">US DAILY BRIEF</text>

  <!-- Date -->
  <text x="88" y="100" font-family="Georgia, serif" font-size="16" fill="#d8b878" opacity="0.7" letter-spacing="3">2026.06.27 · SLOT 06</text>

  <!-- Diamond separator -->
  <polygon points="88,118 95,125 88,132 81,125" fill="#d8b878"/>

  <!-- Main headline -->
  <text x="88" y="190" font-family="Georgia, serif" font-size="58" font-weight="bold" fill="#f0e8d8">S&amp;P 500</text>
  <text x="88" y="265" font-family="Georgia, serif" font-size="72" font-weight="bold" fill="#d8b878">7,354.02</text>

  <!-- Change indicator (down) -->
  <polygon points="430,272 448,248 412,248" fill="#e05252"/>
  <text x="460" y="268" font-family="Georgia, serif" font-size="28" fill="#e05252" font-weight="bold">−0.05%</text>

  <!-- Subtitle -->
  <text x="88" y="315" font-family="Georgia, serif" font-size="22" fill="#c0b090" opacity="0.85">LLY $1,208(+7.1%) $1,200 돌파 · MSFT +5.7% · AVGO −3.7%</text>

  <!-- Divider line -->
  <line x1="88" y1="348" x2="700" y2="348" stroke="#d8b878" stroke-width="1" opacity="0.4"/>

  <!-- Key data grid -->
  <!-- Row 1 -->
  <text x="88" y="390" font-family="Georgia, serif" font-size="14" fill="#d8b878" opacity="0.6" letter-spacing="1">NASDAQ</text>
  <text x="88" y="415" font-family="Georgia, serif" font-size="22" font-weight="bold" fill="#f0e8d8">25,297.62</text>
  <polygon points="233,415 223,401 243,401" fill="#e05252"/>
  <text x="248" y="415" font-family="Georgia, serif" font-size="16" fill="#e05252">−0.24%</text>

  <text x="380" y="390" font-family="Georgia, serif" font-size="14" fill="#d8b878" opacity="0.6" letter-spacing="1">DOW</text>
  <text x="380" y="415" font-family="Georgia, serif" font-size="22" font-weight="bold" fill="#f0e8d8">51,876.11</text>
  <polygon points="510,415 500,401 520,401" fill="#e05252"/>
  <text x="525" y="415" font-family="Georgia, serif" font-size="16" fill="#e05252">−0.09%</text>

  <!-- Row 2 -->
  <text x="88" y="460" font-family="Georgia, serif" font-size="14" fill="#d8b878" opacity="0.6" letter-spacing="1">LLY</text>
  <text x="88" y="485" font-family="Georgia, serif" font-size="22" font-weight="bold" fill="#f0e8d8">$1,208.12</text>
  <polygon points="236,470 246,484 226,484" fill="#52c47a"/>
  <text x="251" y="485" font-family="Georgia, serif" font-size="16" fill="#52c47a">+7.13%</text>

  <text x="380" y="460" font-family="Georgia, serif" font-size="14" fill="#d8b878" opacity="0.6" letter-spacing="1">MSFT</text>
  <text x="380" y="485" font-family="Georgia, serif" font-size="22" font-weight="bold" fill="#f0e8d8">$372.97</text>
  <polygon points="472,470 482,484 462,484" fill="#52c47a"/>
  <text x="487" y="485" font-family="Georgia, serif" font-size="16" fill="#52c47a">+5.71%</text>

  <!-- Row 3 -->
  <text x="88" y="530" font-family="Georgia, serif" font-size="14" fill="#d8b878" opacity="0.6" letter-spacing="1">NVDA</text>
  <text x="88" y="555" font-family="Georgia, serif" font-size="22" font-weight="bold" fill="#f0e8d8">$192.53</text>
  <polygon points="186,555 176,541 196,541" fill="#e05252"/>
  <text x="201" y="555" font-family="Georgia, serif" font-size="16" fill="#e05252">−1.64%</text>

  <text x="380" y="530" font-family="Georgia, serif" font-size="14" fill="#d8b878" opacity="0.6" letter-spacing="1">WTI</text>
  <text x="380" y="555" font-family="Georgia, serif" font-size="22" font-weight="bold" fill="#f0e8d8">$69.45</text>
  <polygon points="462,555 452,541 472,541" fill="#e05252"/>
  <text x="477" y="555" font-family="Georgia, serif" font-size="16" fill="#e05252">−3.43%</text>

  <!-- Bottom macro row -->
  <text x="88" y="620" font-family="Georgia, serif" font-size="14" fill="#d8b878" opacity="0.6" letter-spacing="1">US10Y</text>
  <text x="88" y="643" font-family="Georgia, serif" font-size="20" font-weight="bold" fill="#f0e8d8">4.372%</text>

  <text x="250" y="620" font-family="Georgia, serif" font-size="14" fill="#d8b878" opacity="0.6" letter-spacing="1">GOLD</text>
  <text x="250" y="643" font-family="Georgia, serif" font-size="20" font-weight="bold" fill="#f0e8d8">$4,082.70</text>
  <polygon points="376,629 386,643 366,643" fill="#52c47a"/>
  <text x="391" y="643" font-family="Georgia, serif" font-size="14" fill="#52c47a">+1.30%</text>

  <text x="500" y="620" font-family="Georgia, serif" font-size="14" fill="#d8b878" opacity="0.6" letter-spacing="1">USD/KRW</text>
  <text x="500" y="643" font-family="Georgia, serif" font-size="20" font-weight="bold" fill="#f0e8d8">1,534.35</text>
  <polygon points="622,643 612,629 632,629" fill="#52c47a"/>
  <text x="637" y="643" font-family="Georgia, serif" font-size="14" fill="#52c47a">−0.78%</text>

  <!-- Lincoln Brief branding -->
  <text x="88" y="695" font-family="Georgia, serif" font-size="13" fill="#d8b878" opacity="0.5" letter-spacing="2">LINCOLN BRIEF</text>

  <!-- PCE badge -->
  <rect x="800" y="380" width="220" height="50" rx="6" fill="#d8b878" opacity="0.12"/>
  <text x="910" y="411" font-family="Georgia, serif" font-size="16" fill="#d8b878" text-anchor="middle" letter-spacing="1">PCE 보합 통과</text>

  <!-- NVDA note -->
  <rect x="800" y="450" width="220" height="50" rx="6" fill="#e05252" opacity="0.1"/>
  <text x="910" y="481" font-family="Georgia, serif" font-size="15" fill="#e05252" text-anchor="middle">NVDA 30일 신저점</text>
</svg>
