<svg xmlns="http://www.w3.org/2000/svg" viewBox="0 0 1280 720" preserveAspectRatio="xMidYMid slice">
  <defs>
    <linearGradient id="bg" x1="0" y1="0" x2="1" y2="1">
      <stop offset="0%" stop-color="#141008"/>
      <stop offset="100%" stop-color="#08070a"/>
    </linearGradient>
    <linearGradient id="gold" x1="0" y1="0" x2="1" y2="0">
      <stop offset="0%" stop-color="#e8cc88"/>
      <stop offset="50%" stop-color="#d8b878"/>
      <stop offset="100%" stop-color="#b89848"/>
    </linearGradient>
    <radialGradient id="glow1" cx="50%" cy="50%" r="60%">
      <stop offset="0%" stop-color="#d8b878" stop-opacity="0.10"/>
      <stop offset="100%" stop-color="#d8b878" stop-opacity="0"/>
    </radialGradient>
    <radialGradient id="glow2" cx="50%" cy="50%" r="60%">
      <stop offset="0%" stop-color="#c06040" stop-opacity="0.06"/>
      <stop offset="100%" stop-color="#c06040" stop-opacity="0"/>
    </radialGradient>
  </defs>

  <rect width="1280" height="720" fill="url(#bg)"/>
  <circle cx="1050" cy="160" r="360" fill="url(#glow1)"/>
  <circle cx="200" cy="580" r="220" fill="url(#glow2)"/>

  <!-- 좌상단 브랜드 -->
  <line x1="80" y1="80" x2="200" y2="80" stroke="#d8b878" stroke-width="1"/>
  <text x="220" y="84" font-family="Georgia, serif" font-style="italic" font-size="20" fill="#e8d8a0">Lincoln</text>
  <text x="310" y="84" font-family="Georgia, serif" font-size="12" letter-spacing="6" fill="#d8b878">BRIEF</text>
  <text x="1200" y="84" font-family="monospace" font-size="11" letter-spacing="3" fill="#d8b878" text-anchor="end">2026.06.04 · DAILY BRIEF · SLOT 01</text>

  <!-- 에디션 라벨 -->
  <text x="80" y="175" font-family="monospace" font-size="13" letter-spacing="5" fill="#d8b878">— 6/3 US 마감 1차 정리 —</text>

  <!-- 메인 헤드라인 -->
  <text x="80" y="268" font-family="Playfair Display, Georgia, serif" font-size="52" font-weight="600" fill="#e8d8a0">S&amp;P 7,576 · NASDAQ 26,915</text>
  <text x="80" y="328" font-family="Playfair Display, Georgia, serif" font-size="34" font-style="italic" fill="url(#gold)">META +4.05% · NVDA −3.07%</text>
  <text x="80" y="378" font-family="Pretendard, sans-serif" font-size="18" fill="#a09060">WTI $96.15 (+2.55%)  ·  USD/KRW 1,529.50 (+1.21%)  ·  US10Y 4.491% (+0.81%)</text>

  <!-- 데이터 그리드 -->
  <g transform="translate(80, 445)">
    <!-- S&P -->
    <g>
      <line x1="0" y1="0" x2="50" y2="0" stroke="#d8b878" stroke-width="1.5"/>
      <text x="0" y="28" font-family="monospace" font-size="11" letter-spacing="3" fill="#a09060">S&amp;P 500</text>
      <text x="0" y="68" font-family="Playfair Display, Georgia, serif" font-size="28" fill="#e8d8a0">7,576.05</text>
      <polygon points="7,76 0,90 14,90" fill="#c06060"/>
      <text x="22" y="93" font-family="monospace" font-size="13" fill="#c06060">−0.44%</text>
    </g>
    <!-- NASDAQ -->
    <g transform="translate(210, 0)">
      <line x1="0" y1="0" x2="50" y2="0" stroke="#d8b878" stroke-width="1.5"/>
      <text x="0" y="28" font-family="monospace" font-size="11" letter-spacing="3" fill="#a09060">NASDAQ</text>
      <text x="0" y="68" font-family="Playfair Display, Georgia, serif" font-size="28" fill="#e8d8a0">26,915</text>
      <polygon points="7,76 0,90 14,90" fill="#c06060"/>
      <text x="22" y="93" font-family="monospace" font-size="13" fill="#c06060">−0.66%</text>
    </g>
    <!-- META -->
    <g transform="translate(430, 0)">
      <line x1="0" y1="0" x2="50" y2="0" stroke="#d8b878" stroke-width="1.5"/>
      <text x="0" y="28" font-family="monospace" font-size="11" letter-spacing="3" fill="#a09060">META</text>
      <text x="0" y="68" font-family="Playfair Display, Georgia, serif" font-size="28" fill="#e8d8a0">$621.85</text>
      <polygon points="0,76 14,76 7,90" fill="#6ba368"/>
      <text x="22" y="93" font-family="monospace" font-size="13" fill="#6ba368">+4.05%</text>
    </g>
    <!-- NVDA -->
    <g transform="translate(640, 0)">
      <line x1="0" y1="0" x2="50" y2="0" stroke="#d8b878" stroke-width="1.5"/>
      <text x="0" y="28" font-family="monospace" font-size="11" letter-spacing="3" fill="#a09060">NVDA</text>
      <text x="0" y="68" font-family="Playfair Display, Georgia, serif" font-size="28" fill="#e8d8a0">$215.97</text>
      <polygon points="7,76 0,90 14,90" fill="#c06060"/>
      <text x="22" y="93" font-family="monospace" font-size="13" fill="#c06060">−3.07%</text>
    </g>
    <!-- WTI -->
    <g transform="translate(850, 0)">
      <line x1="0" y1="0" x2="50" y2="0" stroke="#d8b878" stroke-width="1.5"/>
      <text x="0" y="28" font-family="monospace" font-size="11" letter-spacing="3" fill="#a09060">WTI</text>
      <text x="0" y="68" font-family="Playfair Display, Georgia, serif" font-size="28" fill="#e8d8a0">$96.15</text>
      <polygon points="0,76 14,76 7,90" fill="#6ba368"/>
      <text x="22" y="93" font-family="monospace" font-size="13" fill="#6ba368">+2.55%</text>
    </g>
    <!-- DOW -->
    <g transform="translate(1060, 0)">
      <line x1="0" y1="0" x2="50" y2="0" stroke="#d8b878" stroke-width="1.5"/>
      <text x="0" y="28" font-family="monospace" font-size="11" letter-spacing="3" fill="#a09060">DOW</text>
      <text x="0" y="68" font-family="Playfair Display, Georgia, serif" font-size="28" fill="#e8d8a0">50,909</text>
      <polygon points="7,76 0,90 14,90" fill="#c06060"/>
      <text x="22" y="93" font-family="monospace" font-size="13" fill="#c06060">−0.78%</text>
    </g>
  </g>

  <!-- 하단 구분선 -->
  <line x1="80" y1="625" x2="1200" y2="625" stroke="#d8b878" stroke-width="0.5" stroke-opacity="0.4"/>
  <text x="80" y="650" font-family="monospace" font-size="10" letter-spacing="2" fill="#786040">Lincoln Brief · lincoln-brief.vercel.app · 본 자료는 정보 제공 목적이며 투자 권유가 아닙니다</text>
</svg>
