<svg xmlns="http://www.w3.org/2000/svg" viewBox="0 0 1280 720" preserveAspectRatio="xMidYMid slice">
  <defs>
    <linearGradient id="bg" x1="0" y1="0" x2="1" y2="1">
      <stop offset="0%" stop-color="#141008"/>
      <stop offset="100%" stop-color="#08070a"/>
    </linearGradient>
    <linearGradient id="gold" x1="0" y1="0" x2="1" y2="0">
      <stop offset="0%" stop-color="#e8cc88"/>
      <stop offset="50%" stop-color="#d8b878"/>
      <stop offset="100%" stop-color="#b89848"/>
    </linearGradient>
    <radialGradient id="glow1" cx="50%" cy="50%" r="60%">
      <stop offset="0%" stop-color="#d8b878" stop-opacity="0.10"/>
      <stop offset="100%" stop-color="#d8b878" stop-opacity="0"/>
    </radialGradient>
    <radialGradient id="glow2" cx="50%" cy="50%" r="60%">
      <stop offset="0%" stop-color="#c04040" stop-opacity="0.08"/>
      <stop offset="100%" stop-color="#c04040" stop-opacity="0"/>
    </radialGradient>
  </defs>

  <rect width="1280" height="720" fill="url(#bg)"/>
  <circle cx="1050" cy="160" r="360" fill="url(#glow1)"/>
  <circle cx="200" cy="580" r="220" fill="url(#glow2)"/>

  <!-- 좌상단 브랜드 -->
  <line x1="80" y1="80" x2="200" y2="80" stroke="#d8b878" stroke-width="1"/>
  <text x="220" y="84" font-family="Georgia, serif" font-style="italic" font-size="20" fill="#e8d8a0">Lincoln</text>
  <text x="310" y="84" font-family="Georgia, serif" font-size="12" letter-spacing="6" fill="#d8b878">BRIEF</text>
  <text x="1200" y="84" font-family="monospace" font-size="11" letter-spacing="3" fill="#d8b878" text-anchor="end">2026.06.10 · DAILY BRIEF · SLOT 01</text>

  <!-- 에디션 라벨 -->
  <text x="80" y="175" font-family="monospace" font-size="13" letter-spacing="5" fill="#d8b878">— 6/9 마감 · FOMC D-1 · 기술주 전면 후퇴 —</text>

  <!-- 메인 헤드라인 -->
  <text x="80" y="265" font-family="Playfair Display, Georgia, serif" font-size="48" font-weight="600" fill="#e8d8a0">S&amp;P −1.74% · NASDAQ −2.97%</text>
  <text x="80" y="322" font-family="Playfair Display, Georgia, serif" font-size="28" font-style="italic" fill="url(#gold)">AVGO −5.68% · AAPL $289 · $300 이탈</text>
  <text x="80" y="370" font-family="sans-serif" font-size="18" fill="#a09060">WTI $86.54 (−5.21%)  |  FOMC(6/11) D-1</text>

  <!-- 데이터 그리드 -->
  <g transform="translate(80, 445)">
    <!-- S&P -->
    <g>
      <line x1="0" y1="0" x2="50" y2="0" stroke="#c04040" stroke-width="1.5"/>
      <text x="0" y="28" font-family="monospace" font-size="11" letter-spacing="3" fill="#a09060">S&amp;P 500</text>
      <text x="0" y="68" font-family="Georgia, serif" font-size="28" fill="#e8d8a0">7,277</text>
      <polygon points="0,90 14,90 7,104" fill="#c04040"/>
      <text x="22" y="103" font-family="monospace" font-size="13" fill="#c04040">−1.74%</text>
    </g>
    <!-- NASDAQ -->
    <g transform="translate(210, 0)">
      <line x1="0" y1="0" x2="50" y2="0" stroke="#c04040" stroke-width="1.5"/>
      <text x="0" y="28" font-family="monospace" font-size="11" letter-spacing="3" fill="#a09060">NASDAQ</text>
      <text x="0" y="68" font-family="Georgia, serif" font-size="28" fill="#e8d8a0">25,160</text>
      <polygon points="0,90 14,90 7,104" fill="#c04040"/>
      <text x="22" y="103" font-family="monospace" font-size="13" fill="#c04040">−2.97%</text>
    </g>
    <!-- WTI -->
    <g transform="translate(430, 0)">
      <line x1="0" y1="0" x2="50" y2="0" stroke="#c04040" stroke-width="1.5"/>
      <text x="0" y="28" font-family="monospace" font-size="11" letter-spacing="3" fill="#a09060">WTI</text>
      <text x="0" y="68" font-family="Georgia, serif" font-size="28" fill="#e8d8a0">$86.54</text>
      <polygon points="0,90 14,90 7,104" fill="#c04040"/>
      <text x="22" y="103" font-family="monospace" font-size="13" fill="#c04040">−5.21%</text>
    </g>
    <!-- BRK-B -->
    <g transform="translate(620, 0)">
      <line x1="0" y1="0" x2="50" y2="0" stroke="#60a060" stroke-width="1.5"/>
      <text x="0" y="28" font-family="monospace" font-size="11" letter-spacing="3" fill="#a09060">BRK-B</text>
      <text x="0" y="68" font-family="Georgia, serif" font-size="28" fill="#e8d8a0">$490.57</text>
      <polygon points="0,90 14,90 7,76" fill="#60a060"/>
      <text x="22" y="90" font-family="monospace" font-size="13" fill="#60a060">+0.73%</text>
    </g>
    <!-- USD/KRW -->
    <g transform="translate(870, 0)">
      <line x1="0" y1="0" x2="50" y2="0" stroke="#60a060" stroke-width="1.5"/>
      <text x="0" y="28" font-family="monospace" font-size="11" letter-spacing="3" fill="#a09060">USD/KRW</text>
      <text x="0" y="68" font-family="Georgia, serif" font-size="28" fill="#e8d8a0">1,531</text>
      <polygon points="0,90 14,90 7,76" fill="#60a060"/>
      <text x="22" y="90" font-family="monospace" font-size="13" fill="#60a060">−1.50%</text>
    </g>
  </g>

  <!-- 하단 구분선 -->
  <line x1="80" y1="620" x2="1200" y2="620" stroke="#d8b878" stroke-width="0.5" stroke-opacity="0.4"/>
  <text x="80" y="650" font-family="monospace" font-size="11" fill="#a09060">방어주 선방 (BRK-B +0.73% · WMT +0.48%) — 기술주 전면 후퇴</text>
  <text x="1200" y="650" font-family="monospace" font-size="11" fill="#d8b878" text-anchor="end">© Lincoln Brief</text>
</svg>
