<svg xmlns="http://www.w3.org/2000/svg" viewBox="0 0 1280 720" preserveAspectRatio="xMidYMid slice">
  <defs>
    <linearGradient id="bg" x1="0" y1="0" x2="1" y2="1">
      <stop offset="0%" stop-color="#081410"/>
      <stop offset="100%" stop-color="#050908"/>
    </linearGradient>
    <linearGradient id="green" x1="0" y1="0" x2="1" y2="0">
      <stop offset="0%" stop-color="#8ab87e"/>
      <stop offset="50%" stop-color="#7a9d6e"/>
      <stop offset="100%" stop-color="#5a7d4e"/>
    </linearGradient>
    <radialGradient id="glow1" cx="50%" cy="50%" r="60%">
      <stop offset="0%" stop-color="#7a9d6e" stop-opacity="0.12"/>
      <stop offset="100%" stop-color="#7a9d6e" stop-opacity="0"/>
    </radialGradient>
    <radialGradient id="glow2" cx="50%" cy="50%" r="60%">
      <stop offset="0%" stop-color="#c06060" stop-opacity="0.07"/>
      <stop offset="100%" stop-color="#c06060" stop-opacity="0"/>
    </radialGradient>
  </defs>

  <rect width="1280" height="720" fill="url(#bg)"/>
  <circle cx="1050" cy="160" r="360" fill="url(#glow1)"/>
  <circle cx="200" cy="580" r="220" fill="url(#glow2)"/>

  <!-- 좌상단 브랜드 -->
  <line x1="80" y1="80" x2="200" y2="80" stroke="#7a9d6e" stroke-width="1"/>
  <text x="220" y="84" font-family="Georgia, serif" font-style="italic" font-size="20" fill="#a8c8a0">Lincoln</text>
  <text x="310" y="84" font-family="Georgia, serif" font-size="12" letter-spacing="6" fill="#7a9d6e">BRIEF</text>
  <text x="1200" y="84" font-family="monospace" font-size="11" letter-spacing="3" fill="#7a9d6e" text-anchor="end">2026.06.08 · ECONOMY ISSUE · SLOT 06</text>

  <!-- 에디션 라벨 -->
  <text x="80" y="175" font-family="monospace" font-size="13" letter-spacing="5" fill="#7a9d6e">— 달러 집중 국면 · 글로벌 자금 재배분 —</text>

  <!-- 메인 헤드라인 -->
  <text x="80" y="265" font-family="Playfair Display, Georgia, serif" font-size="44" font-weight="700" fill="#d0eed0">US10Y 4.536% + 달러 강세</text>
  <text x="80" y="322" font-family="Playfair Display, Georgia, serif" font-size="28" font-style="italic" fill="url(#green)">주식·금·원유 동반 하락 · 달러 집중 국면</text>
  <text x="80" y="370" font-family="sans-serif" font-size="18" fill="#6a8a60">USD/KRW 1,559.06(+1.70%)  |  BTC +1.45% 반독립  |  FOMC(6/11) D-3</text>

  <!-- 데이터 그리드 -->
  <g transform="translate(80, 445)">
    <!-- US10Y -->
    <g>
      <line x1="0" y1="0" x2="50" y2="0" stroke="#c08040" stroke-width="1.5"/>
      <text x="0" y="28" font-family="monospace" font-size="11" letter-spacing="3" fill="#6a8a60">US10Y</text>
      <text x="0" y="68" font-family="Georgia, serif" font-size="28" fill="#d0eed0">4.536%</text>
      <polygon points="0,90 14,90 7,76" fill="#c08040"/>
      <text x="22" y="90" font-family="monospace" font-size="13" fill="#c08040">+1.32%</text>
    </g>
    <!-- USD/KRW -->
    <g transform="translate(210, 0)">
      <line x1="0" y1="0" x2="50" y2="0" stroke="#c08040" stroke-width="1.5"/>
      <text x="0" y="28" font-family="monospace" font-size="11" letter-spacing="3" fill="#6a8a60">USD/KRW</text>
      <text x="0" y="68" font-family="Georgia, serif" font-size="28" fill="#d0eed0">1,559</text>
      <polygon points="0,90 14,90 7,76" fill="#c08040"/>
      <text x="22" y="90" font-family="monospace" font-size="13" fill="#c08040">+1.70%</text>
    </g>
    <!-- GOLD -->
    <g transform="translate(430, 0)">
      <line x1="0" y1="0" x2="50" y2="0" stroke="#c06060" stroke-width="1.5"/>
      <text x="0" y="28" font-family="monospace" font-size="11" letter-spacing="3" fill="#6a8a60">GOLD</text>
      <text x="0" y="68" font-family="Georgia, serif" font-size="28" fill="#d0eed0">$4,365</text>
      <polygon points="7,90 0,76 14,76" fill="#c06060"/>
      <text x="22" y="90" font-family="monospace" font-size="13" fill="#c06060">−2.47%</text>
    </g>
    <!-- WTI -->
    <g transform="translate(640, 0)">
      <line x1="0" y1="0" x2="50" y2="0" stroke="#c06060" stroke-width="1.5"/>
      <text x="0" y="28" font-family="monospace" font-size="11" letter-spacing="3" fill="#6a8a60">WTI</text>
      <text x="0" y="68" font-family="Georgia, serif" font-size="28" fill="#d0eed0">$90.54</text>
      <polygon points="7,90 0,76 14,76" fill="#c06060"/>
      <text x="22" y="90" font-family="monospace" font-size="13" fill="#c06060">−2.69%</text>
    </g>
    <!-- BTC -->
    <g transform="translate(850, 0)">
      <line x1="0" y1="0" x2="50" y2="0" stroke="#7a9d6e" stroke-width="1.5"/>
      <text x="0" y="28" font-family="monospace" font-size="11" letter-spacing="3" fill="#6a8a60">BTC</text>
      <text x="0" y="68" font-family="Georgia, serif" font-size="28" fill="#d0eed0">$61,749</text>
      <polygon points="0,90 14,90 7,76" fill="#7a9d6e"/>
      <text x="22" y="90" font-family="monospace" font-size="13" fill="#7a9d6e">+1.45%</text>
    </g>
  </g>

  <!-- 하단 구분선 -->
  <line x1="80" y1="580" x2="1200" y2="580" stroke="#7a9d6e" stroke-width="0.5" stroke-opacity="0.4"/>
  <text x="80" y="608" font-family="monospace" font-size="11" fill="#3a6030" letter-spacing="2">FRED DGS10 4.47% (6/4) → 4.536% (6/5) · GOLD 안전자산 역설 · FOMC(6/11) D-3</text>
  <text x="80" y="635" font-family="monospace" font-size="10" fill="#2a4020">SLOT 06 · ECONOMY ISSUE · lincoln-brief.vercel.app</text>
</svg>
