<svg xmlns="http://www.w3.org/2000/svg" viewBox="0 0 1280 720" preserveAspectRatio="xMidYMid slice">
  <defs>
    <linearGradient id="bg" x1="0" y1="0" x2="1" y2="1">
      <stop offset="0%" stop-color="#081408"/>
      <stop offset="100%" stop-color="#060a06"/>
    </linearGradient>
    <linearGradient id="green" x1="0" y1="0" x2="1" y2="0">
      <stop offset="0%" stop-color="#88cc88"/>
      <stop offset="50%" stop-color="#68b868"/>
      <stop offset="100%" stop-color="#489848"/>
    </linearGradient>
    <radialGradient id="glow1" cx="50%" cy="50%" r="60%">
      <stop offset="0%" stop-color="#68b868" stop-opacity="0.10"/>
      <stop offset="100%" stop-color="#68b868" stop-opacity="0"/>
    </radialGradient>
    <radialGradient id="glow2" cx="50%" cy="50%" r="60%">
      <stop offset="0%" stop-color="#d8b878" stop-opacity="0.06"/>
      <stop offset="100%" stop-color="#d8b878" stop-opacity="0"/>
    </radialGradient>
  </defs>

  <rect width="1280" height="720" fill="url(#bg)"/>
  <circle cx="1050" cy="160" r="360" fill="url(#glow1)"/>
  <circle cx="200" cy="580" r="220" fill="url(#glow2)"/>

  <!-- 좌상단 브랜드 -->
  <line x1="80" y1="80" x2="200" y2="80" stroke="#68b868" stroke-width="1"/>
  <text x="220" y="84" font-family="Georgia, serif" font-style="italic" font-size="20" fill="#a0e0a0">Lincoln</text>
  <text x="310" y="84" font-family="Georgia, serif" font-size="12" letter-spacing="6" fill="#68b868">BRIEF</text>
  <text x="1200" y="84" font-family="monospace" font-size="11" letter-spacing="3" fill="#68b868" text-anchor="end">2026.06.09 · ECONOMY ISSUE · SLOT 01</text>

  <!-- 에디션 라벨 -->
  <text x="80" y="175" font-family="monospace" font-size="13" letter-spacing="5" fill="#68b868">— USD/KRW 달러 후퇴 · 리스크온 패턴 전환 분석 —</text>

  <!-- 메인 헤드라인 -->
  <text x="80" y="265" font-family="Playfair Display, Georgia, serif" font-size="46" font-weight="600" fill="#c0e8c0">USD/KRW 1,526.07 달러 후퇴</text>
  <text x="80" y="322" font-family="Playfair Display, Georgia, serif" font-size="28" font-style="italic" fill="url(#green)">6/5 '달러 러쉬'에서 리스크온으로 — 패턴 전환</text>
  <text x="80" y="370" font-family="sans-serif" font-size="18" fill="#809080">GOLD +0.61% · WTI +0.80% · BTC +0.53%  |  주식·금·원유 동반 상승</text>

  <!-- 데이터 그리드 -->
  <g transform="translate(80, 445)">
    <!-- USD/KRW -->
    <g>
      <line x1="0" y1="0" x2="50" y2="0" stroke="#68b868" stroke-width="1.5"/>
      <text x="0" y="28" font-family="monospace" font-size="11" letter-spacing="3" fill="#809080">USD/KRW</text>
      <text x="0" y="68" font-family="Georgia, serif" font-size="28" fill="#c0e8c0">1,526</text>
      <polygon points="7,90 0,76 14,76" fill="#68b868"/>
      <text x="22" y="90" font-family="monospace" font-size="13" fill="#68b868">−0.46%</text>
    </g>
    <!-- GOLD -->
    <g transform="translate(210, 0)">
      <line x1="0" y1="0" x2="50" y2="0" stroke="#68b868" stroke-width="1.5"/>
      <text x="0" y="28" font-family="monospace" font-size="11" letter-spacing="3" fill="#809080">GOLD</text>
      <text x="0" y="68" font-family="Georgia, serif" font-size="28" fill="#c0e8c0">$4,363</text>
      <polygon points="0,90 14,90 7,76" fill="#68b868"/>
      <text x="22" y="90" font-family="monospace" font-size="13" fill="#68b868">+0.61%</text>
    </g>
    <!-- WTI -->
    <g transform="translate(430, 0)">
      <line x1="0" y1="0" x2="50" y2="0" stroke="#68b868" stroke-width="1.5"/>
      <text x="0" y="28" font-family="monospace" font-size="11" letter-spacing="3" fill="#809080">WTI</text>
      <text x="0" y="68" font-family="Georgia, serif" font-size="28" fill="#c0e8c0">$91.26</text>
      <polygon points="0,90 14,90 7,76" fill="#68b868"/>
      <text x="22" y="90" font-family="monospace" font-size="13" fill="#68b868">+0.80%</text>
    </g>
    <!-- BTC -->
    <g transform="translate(640, 0)">
      <line x1="0" y1="0" x2="50" y2="0" stroke="#68b868" stroke-width="1.5"/>
      <text x="0" y="28" font-family="monospace" font-size="11" letter-spacing="3" fill="#809080">BTC</text>
      <text x="0" y="68" font-family="Georgia, serif" font-size="28" fill="#c0e8c0">$63,574</text>
      <polygon points="0,90 14,90 7,76" fill="#68b868"/>
      <text x="22" y="90" font-family="monospace" font-size="13" fill="#68b868">+0.53%</text>
    </g>
    <!-- US10Y -->
    <g transform="translate(870, 0)">
      <line x1="0" y1="0" x2="50" y2="0" stroke="#c08040" stroke-width="1.5"/>
      <text x="0" y="28" font-family="monospace" font-size="11" letter-spacing="3" fill="#809080">US10Y</text>
      <text x="0" y="68" font-family="Georgia, serif" font-size="28" fill="#c0e8c0">4.556%</text>
      <polygon points="0,90 14,90 7,76" fill="#c08040"/>
      <text x="22" y="90" font-family="monospace" font-size="13" fill="#c08040">+0.44%</text>
    </g>
  </g>

  <!-- 하단 구분선 -->
  <line x1="80" y1="580" x2="1200" y2="580" stroke="#68b868" stroke-width="0.5" stroke-opacity="0.4"/>
  <text x="80" y="608" font-family="monospace" font-size="11" fill="#508050" letter-spacing="2">6/8 US CLOSE · 달러 약세 전환 · 리스크온 · FOMC 6/11 D-2 · S&amp;P +0.71%</text>
  <text x="80" y="635" font-family="monospace" font-size="10" fill="#406040">SLOT 01 · 1ST UPDATE · lincoln-brief.vercel.app</text>
</svg>
