<svg xmlns="http://www.w3.org/2000/svg" viewBox="0 0 1280 720" preserveAspectRatio="xMidYMid slice">
  <defs>
    <linearGradient id="bg" x1="0" y1="0" x2="1" y2="1">
      <stop offset="0%" stop-color="#180c0a"/>
      <stop offset="100%" stop-color="#0a0808"/>
    </linearGradient>
    <linearGradient id="red" x1="0" y1="0" x2="1" y2="0">
      <stop offset="0%" stop-color="#e87060"/>
      <stop offset="50%" stop-color="#d96552"/>
      <stop offset="100%" stop-color="#b84838"/>
    </linearGradient>
    <radialGradient id="glow1" cx="50%" cy="50%" r="60%">
      <stop offset="0%" stop-color="#d96552" stop-opacity="0.12"/>
      <stop offset="100%" stop-color="#d96552" stop-opacity="0"/>
    </radialGradient>
    <radialGradient id="glow2" cx="50%" cy="50%" r="60%">
      <stop offset="0%" stop-color="#d8b878" stop-opacity="0.07"/>
      <stop offset="100%" stop-color="#d8b878" stop-opacity="0"/>
    </radialGradient>
  </defs>

  <rect width="1280" height="720" fill="url(#bg)"/>
  <circle cx="1100" cy="180" r="380" fill="url(#glow1)"/>
  <circle cx="180" cy="580" r="220" fill="url(#glow2)"/>

  <!-- 좌상단 브랜드 -->
  <line x1="80" y1="80" x2="200" y2="80" stroke="#d96552" stroke-width="1"/>
  <text x="220" y="84" font-family="Georgia, serif" font-style="italic" font-size="20" fill="#e8d8a0">Lincoln</text>
  <text x="310" y="84" font-family="Georgia, serif" font-size="12" letter-spacing="6" fill="#d96552">BRIEF</text>
  <text x="1200" y="84" font-family="monospace" font-size="11" letter-spacing="3" fill="#d96552" text-anchor="end">2026.06.09 · MARKET FORECAST · SLOT 06</text>

  <!-- 에디션 라벨 -->
  <text x="80" y="175" font-family="monospace" font-size="13" letter-spacing="5" fill="#d96552">— 시장 예측 · CPI D-1 · FOMC D-2 —</text>

  <!-- 메인 헤드라인 -->
  <text x="80" y="265" font-family="Playfair Display, Georgia, serif" font-size="46" font-weight="600" fill="#e8d8a0">CPI(6/10) · FOMC(6/11)</text>
  <text x="80" y="322" font-family="Playfair Display, Georgia, serif" font-size="30" font-style="italic" fill="url(#red)">최종 시나리오 점검 · S&amp;P 7,405 마감</text>
  <text x="80" y="375" font-family="sans-serif" font-size="18" fill="#a09060">장 후반 반납 · WTI $91.28 · US10Y 4.552%</text>

  <!-- 시나리오 테이블 -->
  <rect x="80" y="418" width="1120" height="200" rx="4" fill="#180c0a" fill-opacity="0.8"/>
  <text x="100" y="448" font-family="monospace" font-size="11" letter-spacing="3" fill="#d96552">FOMC(6/11) 시나리오 — 확률 가중</text>
  <line x1="100" y1="460" x2="1180" y2="460" stroke="#d96552" stroke-width="0.5"/>

  <!-- 헤더 -->
  <text x="100" y="483" font-family="monospace" font-size="11" fill="#806050">시나리오</text>
  <text x="400" y="483" font-family="monospace" font-size="11" fill="#806050">S&amp;P 500 방향</text>
  <text x="750" y="483" font-family="monospace" font-size="11" fill="#806050">확률</text>
  <line x1="100" y1="490" x2="1180" y2="490" stroke="#503020" stroke-width="0.3"/>

  <!-- 온건 비둘기 -->
  <text x="100" y="512" font-family="monospace" font-size="12" fill="#60a060">온건 비둘기</text>
  <text x="400" y="512" font-family="monospace" font-size="12" fill="#e8d8a0">7,450~7,550</text>
  <text x="750" y="512" font-family="monospace" font-size="13" fill="#60a060">30%</text>
  <rect x="830" y="499" width="90" height="14" rx="2" fill="#60a060" fill-opacity="0.3"/>
  <rect x="830" y="499" width="27" height="14" rx="2" fill="#60a060"/>

  <!-- 중립 -->
  <text x="100" y="538" font-family="monospace" font-size="12" fill="#d8b878">중립 (베이스)</text>
  <text x="400" y="538" font-family="monospace" font-size="12" fill="#e8d8a0">7,300~7,450 횡보</text>
  <text x="750" y="538" font-family="monospace" font-size="13" fill="#d8b878">42%</text>
  <rect x="830" y="525" width="90" height="14" rx="2" fill="#d8b878" fill-opacity="0.3"/>
  <rect x="830" y="525" width="38" height="14" rx="2" fill="#d8b878"/>

  <!-- 매파 -->
  <text x="100" y="564" font-family="monospace" font-size="12" fill="#d96552">매파</text>
  <text x="400" y="564" font-family="monospace" font-size="12" fill="#e8d8a0">7,200 이하 테스트</text>
  <text x="750" y="564" font-family="monospace" font-size="13" fill="#d96552">20%</text>
  <rect x="830" y="551" width="90" height="14" rx="2" fill="#d96552" fill-opacity="0.3"/>
  <rect x="830" y="551" width="18" height="14" rx="2" fill="#d96552"/>

  <!-- 강한 비둘기 -->
  <text x="100" y="590" font-family="monospace" font-size="12" fill="#60c080">강한 비둘기</text>
  <text x="400" y="590" font-family="monospace" font-size="12" fill="#e8d8a0">7,550~7,650</text>
  <text x="750" y="590" font-family="monospace" font-size="13" fill="#60c080">8%</text>
  <rect x="830" y="577" width="90" height="14" rx="2" fill="#60c080" fill-opacity="0.3"/>
  <rect x="830" y="577" width="7" height="14" rx="2" fill="#60c080"/>

  <!-- 하단 구분선 -->
  <line x1="80" y1="660" x2="1200" y2="660" stroke="#d96552" stroke-width="0.5" stroke-dasharray="4,6"/>
  <text x="80" y="690" font-family="monospace" font-size="10" letter-spacing="2" fill="#604840">WTI $91.28(+0.82%) · USD/KRW 1,526.62(−1.79%) · BTC $63,667</text>
</svg>
