<svg xmlns="http://www.w3.org/2000/svg" viewBox="0 0 1280 720" width="1280" height="720">
  <defs>
    <linearGradient id="bg" x1="0%" y1="0%" x2="100%" y2="100%">
      <stop offset="0%" style="stop-color:#080c14"/>
      <stop offset="100%" style="stop-color:#101820"/>
    </linearGradient>
  </defs>

  <!-- Background -->
  <rect width="1280" height="720" fill="url(#bg)"/>

  <!-- Top accent line -->
  <rect x="0" y="0" width="1280" height="3" fill="#4a90d9"/>

  <!-- Left accent bar -->
  <rect x="60" y="60" width="4" height="600" fill="#4a90d9" opacity="0.3"/>

  <!-- Edition label top right -->
  <rect x="1020" y="36" width="220" height="32" rx="4" fill="#4a90d9" opacity="0.15"/>
  <text x="1130" y="57" font-family="Georgia, serif" font-size="13" fill="#4a90d9" text-anchor="middle" letter-spacing="2">US STOCK ANALYSIS</text>

  <!-- Date -->
  <text x="88" y="100" font-family="Georgia, serif" font-size="16" fill="#4a90d9" opacity="0.7" letter-spacing="3">2026.06.27 · SLOT 01</text>

  <!-- Diamond separator -->
  <polygon points="88,118 95,125 88,132 81,125" fill="#4a90d9"/>

  <!-- Ticker label -->
  <text x="88" y="180" font-family="Georgia, serif" font-size="24" fill="#4a90d9" letter-spacing="4">ELI LILLY · LLY</text>

  <!-- Main price -->
  <text x="88" y="275" font-family="Georgia, serif" font-size="88" font-weight="bold" fill="#f0f4f8">$1,199.83</text>

  <!-- Big change -->
  <polygon points="88,305 116,335 60,335" fill="#52c47a"/>
  <text x="130" y="333" font-family="Georgia, serif" font-size="42" font-weight="bold" fill="#52c47a">+6.40%</text>

  <!-- Subtitle -->
  <text x="88" y="385" font-family="Georgia, serif" font-size="20" fill="#a0b8d0" opacity="0.9">30일 신고점 · GLP-1 랠리 재점화 · $1,200 심리선 직전</text>

  <!-- Divider -->
  <line x1="88" y1="415" x2="720" y2="415" stroke="#4a90d9" stroke-width="1" opacity="0.4"/>

  <!-- Stats row -->
  <text x="88" y="456" font-family="Georgia, serif" font-size="13" fill="#4a90d9" opacity="0.6" letter-spacing="1">전일 종가</text>
  <text x="88" y="480" font-family="Georgia, serif" font-size="20" font-weight="bold" fill="#f0f4f8">$1,127.69</text>

  <text x="260" y="456" font-family="Georgia, serif" font-size="13" fill="#4a90d9" opacity="0.6" letter-spacing="1">30일 저점</text>
  <text x="260" y="480" font-family="Georgia, serif" font-size="20" font-weight="bold" fill="#f0f4f8">$988.09</text>

  <text x="440" y="456" font-family="Georgia, serif" font-size="13" fill="#4a90d9" opacity="0.6" letter-spacing="1">30일 저점 대비</text>
  <text x="440" y="480" font-family="Georgia, serif" font-size="20" font-weight="bold" fill="#52c47a">+21.4%</text>

  <text x="620" y="456" font-family="Georgia, serif" font-size="13" fill="#4a90d9" opacity="0.6" letter-spacing="1">30일 전 가격</text>
  <text x="620" y="480" font-family="Georgia, serif" font-size="20" font-weight="bold" fill="#f0f4f8">$1,006.70</text>

  <!-- Sparkline visual (simplified bar chart from sparkline data) -->
  <line x1="88" y1="530" x2="720" y2="530" stroke="#4a90d9" stroke-width="1" opacity="0.2"/>
  <!-- Simplified sparkline bars representing the 30-day uptrend -->
  <rect x="88"  y="570" width="18" height="60" fill="#4a90d9" opacity="0.30"/>
  <rect x="110" y="568" width="18" height="62" fill="#4a90d9" opacity="0.32"/>
  <rect x="132" y="575" width="18" height="55" fill="#4a90d9" opacity="0.32"/>
  <rect x="154" y="566" width="18" height="64" fill="#4a90d9" opacity="0.34"/>
  <rect x="176" y="565" width="18" height="65" fill="#4a90d9" opacity="0.36"/>
  <rect x="198" y="562" width="18" height="68" fill="#4a90d9" opacity="0.38"/>
  <rect x="220" y="558" width="18" height="72" fill="#4a90d9" opacity="0.40"/>
  <rect x="242" y="558" width="18" height="72" fill="#4a90d9" opacity="0.42"/>
  <rect x="264" y="554" width="18" height="76" fill="#4a90d9" opacity="0.44"/>
  <rect x="286" y="545" width="18" height="85" fill="#4a90d9" opacity="0.46"/>
  <rect x="308" y="548" width="18" height="82" fill="#4a90d9" opacity="0.48"/>
  <rect x="330" y="552" width="18" height="78" fill="#4a90d9" opacity="0.50"/>
  <rect x="352" y="553" width="18" height="77" fill="#4a90d9" opacity="0.50"/>
  <rect x="374" y="550" width="18" height="80" fill="#4a90d9" opacity="0.52"/>
  <rect x="396" y="543" width="18" height="87" fill="#4a90d9" opacity="0.54"/>
  <rect x="418" y="541" width="18" height="89" fill="#4a90d9" opacity="0.56"/>
  <rect x="440" y="537" width="18" height="93" fill="#4a90d9" opacity="0.58"/>
  <rect x="462" y="538" width="18" height="92" fill="#4a90d9" opacity="0.60"/>
  <rect x="484" y="540" width="18" height="90" fill="#4a90d9" opacity="0.60"/>
  <rect x="506" y="533" width="18" height="97" fill="#4a90d9" opacity="0.62"/>
  <rect x="528" y="542" width="18" height="88" fill="#4a90d9" opacity="0.62"/>
  <rect x="550" y="543" width="18" height="87" fill="#4a90d9" opacity="0.64"/>
  <rect x="572" y="545" width="18" height="85" fill="#4a90d9" opacity="0.66"/>
  <rect x="594" y="547" width="18" height="83" fill="#4a90d9" opacity="0.68"/>
  <rect x="616" y="551" width="18" height="79" fill="#4a90d9" opacity="0.70"/>
  <rect x="638" y="550" width="18" height="80" fill="#4a90d9" opacity="0.72"/>
  <rect x="660" y="548" width="18" height="82" fill="#4a90d9" opacity="0.74"/>
  <rect x="682" y="549" width="18" height="81" fill="#4a90d9" opacity="0.76"/>
  <rect x="704" y="544" width="18" height="86" fill="#4a90d9" opacity="0.80"/>
  <rect x="726" y="510" width="18" height="120" fill="#52c47a" opacity="1"/>

  <!-- $1,200 target line -->
  <line x1="88" y1="511" x2="726" y2="511" stroke="#52c47a" stroke-width="1" stroke-dasharray="5,3" opacity="0.6"/>
  <text x="760" y="516" font-family="Georgia, serif" font-size="13" fill="#52c47a" opacity="0.9">$1,200</text>

  <!-- Lincoln Brief branding -->
  <text x="1220" y="680" font-family="Georgia, serif" font-size="13" fill="#4a90d9" opacity="0.5" text-anchor="end" letter-spacing="2">LINCOLN BRIEF</text>

  <!-- Right decorative element -->
  <text x="1050" y="300" font-family="Georgia, serif" font-size="16" fill="#4a90d9" opacity="0.4" text-anchor="middle" letter-spacing="2">GLP-1 내러티브</text>
  <text x="1050" y="360" font-family="Georgia, serif" font-size="14" fill="#a0b8d0" opacity="0.5" text-anchor="middle">vs AI 재평가</text>
  <circle cx="1050" cy="420" r="80" fill="none" stroke="#4a90d9" stroke-width="1" opacity="0.1"/>
  <circle cx="1050" cy="420" r="55" fill="none" stroke="#52c47a" stroke-width="1" opacity="0.15"/>
</svg>
