<svg xmlns="http://www.w3.org/2000/svg" viewBox="0 0 1280 720" width="1280" height="720">
  <defs>
    <linearGradient id="bg" x1="0" y1="0" x2="1" y2="1">
      <stop offset="0%" stop-color="#080c14"/>
      <stop offset="100%" stop-color="#0f1520"/>
    </linearGradient>
    <linearGradient id="blueLine" x1="0" y1="0" x2="1" y2="0">
      <stop offset="0%" stop-color="#4a90d9" stop-opacity="1"/>
      <stop offset="100%" stop-color="#4a90d9" stop-opacity="0"/>
    </linearGradient>
  </defs>

  <!-- Background -->
  <rect width="1280" height="720" fill="url(#bg)"/>

  <!-- Left accent bar -->
  <rect x="0" y="0" width="6" height="720" fill="#4a90d9"/>

  <!-- Top line -->
  <rect x="6" y="72" width="900" height="1" fill="url(#blueLine)"/>

  <!-- Lincoln Brief mark -->
  <text x="36" y="48" font-family="Georgia, serif" font-size="22" fill="#4a90d9" letter-spacing="3" font-weight="bold">LINCOLN BRIEF</text>

  <!-- Edition -->
  <text x="1244" y="40" font-family="Georgia, serif" font-size="18" fill="#4a6a8a" text-anchor="end">2026.06.17 вҖ” SLOT 06</text>
  <text x="1244" y="62" font-family="Georgia, serif" font-size="14" fill="#3a5a7a" text-anchor="end">мў…лӘ© л¶„м„қ</text>

  <!-- Category label -->
  <rect x="36" y="90" width="190" height="32" rx="4" fill="#4a90d9" fill-opacity="0.15" stroke="#4a90d9" stroke-width="1"/>
  <text x="131" y="111" font-family="Georgia, serif" font-size="14" fill="#4a90d9" text-anchor="middle" letter-spacing="2">STOCK ANALYSIS</text>

  <!-- Ticker -->
  <text x="36" y="185" font-family="Georgia, serif" font-size="28" fill="#4a90d9" letter-spacing="4" font-weight="bold">AVGO В· Broadcom</text>

  <!-- Main price -->
  <text x="36" y="295" font-family="Georgia, serif" font-size="90" fill="#e8f0f8" font-weight="bold">$376.71</text>

  <!-- Change badge -->
  <rect x="36" y="315" width="220" height="52" rx="6" fill="#e05555" fill-opacity="0.15" stroke="#e05555" stroke-width="1.5"/>
  <polygon points="56,338 72,338 64,354" fill="#e05555"/>
  <text x="82" y="350" font-family="Georgia, serif" font-size="26" fill="#e05555" font-weight="bold">вҲ’4.37%</text>

  <!-- Session label -->
  <text x="272" y="350" font-family="Georgia, serif" font-size="18" fill="#4a6a8a">6/16 м„ём…ҳ мөңлҢҖ н•ҳлқҪ</text>

  <!-- Horizontal divider -->
  <rect x="36" y="395" width="620" height="1" fill="#1a2535"/>

  <!-- 30-day stats -->
  <text x="36" y="438" font-family="Georgia, serif" font-size="18" fill="#4a6a8a" letter-spacing="1">30мқј кі м җ</text>
  <text x="36" y="468" font-family="Georgia, serif" font-size="34" fill="#e8f0f8" font-weight="bold">$481.57</text>
  <text x="200" y="454" font-family="Georgia, serif" font-size="18" fill="#e05555">вҶ’ нҳ„мһ¬ вҲ’21.8%</text>

  <text x="36" y="518" font-family="Georgia, serif" font-size="18" fill="#4a6a8a" letter-spacing="1">30мқј м Җм җ м§Җм§Җм„ </text>
  <text x="36" y="548" font-family="Georgia, serif" font-size="34" fill="#e8f0f8" font-weight="bold">$372.10</text>
  <text x="200" y="534" font-family="Georgia, serif" font-size="18" fill="#e0c050">нҳ„мһ¬ вҲ’$4.61 кұ°лҰ¬</text>

  <!-- Right panel вҖ” sparkline visualization -->
  <rect x="720" y="90" width="524" height="590" rx="8" fill="#0a0f18" stroke="#1a2535" stroke-width="1"/>

  <text x="982" y="140" font-family="Georgia, serif" font-size="20" fill="#4a90d9" text-anchor="middle" letter-spacing="2">30мқј к°ҖкІ© к¶Өм Ғ</text>

  <!-- Simplified sparkline (path from data) -->
  <!-- AVGO sparkline: 427вҶ’425вҶ’412вҶ’430вҶ’428вҶ’419вҶ’416вҶ’439вҶ’425вҶ’420вҶ’411вҶ’417вҶ’414вҶ’414вҶ’422вҶ’421вҶ’426вҶ’446вҶ’459вҶ’481вҶ’479вҶ’418вҶ’385вҶ’396вҶ’392вҶ’372вҶ’385вҶ’382вҶ’393вҶ’376 -->
  <!-- Normalize to fit 760,180 to 1200,560 box (width=440, height=380) -->
  <!-- min=372, max=481, range=109 -->
  <!-- x: 30 points over 440px = 15.17px per point -->
  <!-- y: value mapped from 560 (min=372) to 180 (max=481) -->

  <polyline
    points="760,263 775,265 791,303 806,236 821,238 837,271 852,275 867,210 882,244 897,252 913,284 928,266 943,272 958,272 973,249 988,250 1003,244 1018,209 1033,179 1048,147 1063,151 1078,239 1093,310 1108,290 1123,295 1138,337 1153,310 1168,315 1183,289 1198,316"
    fill="none" stroke="#4a90d9" stroke-width="2.5" stroke-linejoin="round"/>

  <!-- Peak marker -->
  <circle cx="1048" cy="147" r="6" fill="#e05555" stroke="#e8f0f8" stroke-width="1.5"/>
  <text x="1048" y="135" font-family="Georgia, serif" font-size="14" fill="#e05555" text-anchor="middle">кі м җ $481</text>

  <!-- Current marker -->
  <circle cx="1198" cy="316" r="6" fill="#4a90d9" stroke="#e8f0f8" stroke-width="1.5"/>
  <text x="1198" y="335" font-family="Georgia, serif" font-size="14" fill="#4a90d9" text-anchor="middle">$376.71</text>

  <!-- Drop arrow annotation -->
  <line x1="1060" y1="165" x2="1185" y2="300" stroke="#e05555" stroke-width="1.5" stroke-dasharray="6,4"/>
  <text x="1110" y="240" font-family="Georgia, serif" font-size="18" fill="#e05555" font-weight="bold">вҲ’21.8%</text>

  <!-- Comparison NVDA -->
  <rect x="760" y="540" width="444" height="1" fill="#1a2535"/>
  <text x="760" y="575" font-family="Georgia, serif" font-size="16" fill="#4a6a8a">л№„көҗ: NVDA кі м җ лҢҖл№„</text>
  <text x="1200" y="575" font-family="Georgia, serif" font-size="16" fill="#e07070" text-anchor="end">вҲ’12.1%</text>
  <text x="760" y="600" font-family="Georgia, serif" font-size="16" fill="#4a6a8a">AVGO кі м җ лҢҖл№„</text>
  <text x="1200" y="600" font-family="Georgia, serif" font-size="16" fill="#e05555" text-anchor="end">вҲ’21.8%</text>

  <!-- Bottom insight -->
  <text x="36" y="620" font-family="Georgia, serif" font-size="18" fill="#4a6a8a">м»ӨмҠӨн…Җ ASIC лҢҖмһҘмЈј вҖ” н”јнҒ¬м•„мӣғмқёк°Җ, лҗҳлҸҢлҰјмқёк°Җ</text>

  <!-- Bottom bar -->
  <rect x="0" y="700" width="1280" height="20" fill="#050810"/>
  <text x="640" y="714" font-family="Georgia, serif" font-size="11" fill="#2a3a4a" text-anchor="middle" letter-spacing="1">вҖ» ліё кёҖмқҖ м •ліҙ м ңкіө лӘ©м Ғмқҙл©° нҲ¬мһҗ к¶Ңмң к°Җ м•„лӢҷлӢҲлӢӨ вҖ” LINCOLN BRIEF</text>
</svg>
