<svg xmlns="http://www.w3.org/2000/svg" viewBox="0 0 1280 720" preserveAspectRatio="xMidYMid slice">
  <defs>
    <linearGradient id="bg" x1="0" y1="0" x2="1" y2="1">
      <stop offset="0%" stop-color="#0c1018"/>
      <stop offset="100%" stop-color="#07080e"/>
    </linearGradient>
    <linearGradient id="blue" x1="0" y1="0" x2="1" y2="0">
      <stop offset="0%" stop-color="#7aa0d8"/>
      <stop offset="50%" stop-color="#5677b0"/>
      <stop offset="100%" stop-color="#3a5890"/>
    </linearGradient>
    <radialGradient id="glow1" cx="50%" cy="50%" r="60%">
      <stop offset="0%" stop-color="#5677b0" stop-opacity="0.12"/>
      <stop offset="100%" stop-color="#5677b0" stop-opacity="0"/>
    </radialGradient>
    <radialGradient id="glow2" cx="50%" cy="50%" r="60%">
      <stop offset="0%" stop-color="#d96552" stop-opacity="0.08"/>
      <stop offset="100%" stop-color="#d96552" stop-opacity="0"/>
    </radialGradient>
  </defs>

  <rect width="1280" height="720" fill="url(#bg)"/>
  <circle cx="1100" cy="200" r="400" fill="url(#glow1)"/>
  <circle cx="180" cy="560" r="200" fill="url(#glow2)"/>

  <!-- 좌상단 브랜드 -->
  <line x1="80" y1="80" x2="200" y2="80" stroke="#5677b0" stroke-width="1"/>
  <text x="220" y="84" font-family="Georgia, serif" font-style="italic" font-size="20" fill="#e8d8a0">Lincoln</text>
  <text x="310" y="84" font-family="Georgia, serif" font-size="12" letter-spacing="6" fill="#5677b0">BRIEF</text>
  <text x="1200" y="84" font-family="monospace" font-size="11" letter-spacing="3" fill="#5677b0" text-anchor="end">2026.06.09 · STOCK ANALYSIS · SLOT 06</text>

  <!-- 에디션 라벨 -->
  <text x="80" y="175" font-family="monospace" font-size="13" letter-spacing="5" fill="#5677b0">— 종목 분석 · AAPL · 6/9 오전 —</text>

  <!-- 메인 헤드라인 -->
  <text x="80" y="268" font-family="Playfair Display, Georgia, serif" font-size="52" font-weight="600" fill="#e8d8a0">AAPL $301.54</text>
  <text x="80" y="325" font-family="Playfair Display, Georgia, serif" font-size="30" font-style="italic" fill="url(#blue)">−1.89% · 장 후반 급반전</text>
  <text x="80" y="378" font-family="sans-serif" font-size="18" fill="#a09060">30일 고점 $315.20 대비 −4.3%  |  $300 지지선 임박</text>

  <!-- 데이터 패널 -->
  <rect x="80" y="430" width="480" height="160" rx="4" fill="#101828" fill-opacity="0.7"/>
  <text x="100" y="460" font-family="monospace" font-size="11" letter-spacing="3" fill="#5677b0">APPLE AAPL</text>
  <line x1="100" y1="472" x2="540" y2="472" stroke="#5677b0" stroke-width="0.5"/>

  <text x="100" y="500" font-family="monospace" font-size="11" fill="#708090">6/8 종가</text>
  <text x="380" y="500" font-family="Georgia, serif" font-size="20" fill="#e8d8a0" text-anchor="end">$301.54</text>
  <polygon points="395,495 409,495 402,481" fill="#d96552" transform="rotate(180 402 488)"/>
  <text x="420" y="500" font-family="monospace" font-size="14" fill="#d96552">−1.89%</text>

  <text x="100" y="528" font-family="monospace" font-size="11" fill="#708090">30일 고점</text>
  <text x="380" y="528" font-family="Georgia, serif" font-size="18" fill="#a0b0c0" text-anchor="end">$315.20</text>

  <text x="100" y="556" font-family="monospace" font-size="11" fill="#708090">30일 저점</text>
  <text x="380" y="556" font-family="Georgia, serif" font-size="18" fill="#a0b0c0" text-anchor="end">$267.61</text>

  <text x="100" y="575" font-family="monospace" font-size="11" fill="#708090">고점 대비</text>
  <text x="380" y="575" font-family="Georgia, serif" font-size="18" fill="#d96552" text-anchor="end">−4.3%</text>

  <!-- 비교 패널 -->
  <rect x="600" y="430" width="600" height="160" rx="4" fill="#101828" fill-opacity="0.7"/>
  <text x="620" y="460" font-family="monospace" font-size="11" letter-spacing="3" fill="#5677b0">6/8 SECTOR COMPARISON</text>
  <line x1="620" y1="472" x2="1180" y2="472" stroke="#5677b0" stroke-width="0.5"/>

  <text x="620" y="502" font-family="monospace" font-size="13" fill="#d8b878">TSLA</text>
  <text x="900" y="502" font-family="monospace" font-size="13" fill="#60a060" text-anchor="end">$408.95</text>
  <polygon points="910,497 924,497 917,483" fill="#60a060"/>
  <text x="935" y="502" font-family="monospace" font-size="13" fill="#60a060">+4.59%</text>

  <text x="620" y="528" font-family="monospace" font-size="13" fill="#a0b0c0">AVGO</text>
  <text x="900" y="528" font-family="monospace" font-size="13" fill="#60a060" text-anchor="end">$396.60</text>
  <polygon points="910,523 924,523 917,509" fill="#60a060"/>
  <text x="935" y="528" font-family="monospace" font-size="13" fill="#60a060">+2.82%</text>

  <text x="620" y="554" font-family="monospace" font-size="13" fill="#a0b0c0">MSFT</text>
  <text x="900" y="554" font-family="monospace" font-size="13" fill="#d96552" text-anchor="end">$411.74</text>
  <polygon points="917,554 910,540 924,540" fill="#d96552"/>
  <text x="935" y="554" font-family="monospace" font-size="13" fill="#d96552">−1.18%</text>

  <text x="620" y="580" font-family="monospace" font-size="13" fill="#d96552">AAPL</text>
  <text x="900" y="580" font-family="monospace" font-size="13" fill="#d96552" text-anchor="end">$301.54</text>
  <polygon points="917,580 910,566 924,566" fill="#d96552"/>
  <text x="935" y="580" font-family="monospace" font-size="13" fill="#d96552">−1.89%</text>

  <!-- 하단 구분선 -->
  <line x1="80" y1="660" x2="1200" y2="660" stroke="#5677b0" stroke-width="0.5" stroke-dasharray="4,6"/>
  <text x="80" y="690" font-family="monospace" font-size="10" letter-spacing="2" fill="#405060">$300 지지선 임박 · CPI 6/10 · FOMC 6/11 · US10Y 4.552%</text>
</svg>
