<svg xmlns="http://www.w3.org/2000/svg" viewBox="0 0 1280 720" preserveAspectRatio="xMidYMid slice">
  <defs>
    <linearGradient id="bg" x1="0" y1="0" x2="1" y2="1">
      <stop offset="0%" stop-color="#0f1a10"/>
      <stop offset="100%" stop-color="#070d07"/>
    </linearGradient>
    <linearGradient id="gold" x1="0" y1="0" x2="1" y2="0">
      <stop offset="0%" stop-color="#f0d88c"/>
      <stop offset="50%" stop-color="#d8b878"/>
      <stop offset="100%" stop-color="#b89a5a"/>
    </linearGradient>
    <radialGradient id="glow" cx="50%" cy="50%" r="60%">
      <stop offset="0%" stop-color="#6ba368" stop-opacity="0.12"/>
      <stop offset="100%" stop-color="#6ba368" stop-opacity="0"/>
    </radialGradient>
  </defs>

  <rect width="1280" height="720" fill="url(#bg)"/>
  <circle cx="1050" cy="180" r="320" fill="url(#glow)"/>
  <circle cx="220" cy="600" r="260" fill="url(#glow)"/>

  <!-- 좌상단 브랜드 -->
  <line x1="80" y1="80" x2="200" y2="80" stroke="#d8b878" stroke-width="1"/>
  <text x="220" y="84" font-family="Georgia, serif" font-style="italic" font-size="20" fill="#f5edd9">Lincoln</text>
  <text x="310" y="84" font-family="Georgia, serif" font-size="12" letter-spacing="6" fill="#d8b878">BRIEF</text>
  <text x="1200" y="84" font-family="monospace" font-size="11" letter-spacing="3" fill="#d8b878" text-anchor="end">2026.06.20 · STOCK ANALYSIS · 01:00</text>

  <!-- 헤드라인 -->
  <text x="80" y="175" font-family="monospace" font-size="13" letter-spacing="5" fill="#6ba368">— AI CHIP SUPPLIER —</text>
  <text x="80" y="255" font-family="Georgia, serif" font-size="66" font-weight="500" fill="#f5edd9">AVGO $411.35</text>
  <text x="80" y="325" font-family="Georgia, serif" font-size="54" font-style="italic" fill="url(#gold)">+4.70%  2연속 강세</text>
  <text x="80" y="380" font-family="sans-serif" font-size="17" fill="#988e72">저점 $372.10에서 +10.6% 반등 · 고점 $481.57 대비 −14.6%</text>

  <!-- 4섹터 데이터 그리드 -->
  <g transform="translate(80, 460)">
    <!-- AVGO 종가 -->
    <g>
      <line x1="0" y1="0" x2="50" y2="0" stroke="#6ba368" stroke-width="1.5"/>
      <text x="0" y="28" font-family="monospace" font-size="11" letter-spacing="3" fill="#988e72">AI CHIP · AVGO</text>
      <text x="0" y="68" font-family="Georgia, serif" font-size="32" fill="#f5edd9">$411.35</text>
      <polygon points="0,72 14,72 7,58" fill="#6ba368"/>
      <text x="22" y="79" font-family="monospace" font-size="14" fill="#6ba368">+4.70%</text>
    </g>
    <!-- NVDA 비교 -->
    <g transform="translate(290, 0)">
      <line x1="0" y1="0" x2="50" y2="0" stroke="#6ba368" stroke-width="1.5"/>
      <text x="0" y="28" font-family="monospace" font-size="11" letter-spacing="3" fill="#988e72">GPU · NVDA</text>
      <text x="0" y="68" font-family="Georgia, serif" font-size="32" fill="#f5edd9">$210.69</text>
      <polygon points="0,72 14,72 7,58" fill="#6ba368"/>
      <text x="22" y="79" font-family="monospace" font-size="14" fill="#6ba368">+2.95%</text>
    </g>
    <!-- 30일 고점 -->
    <g transform="translate(580, 0)">
      <line x1="0" y1="0" x2="50" y2="0" stroke="#d8b878" stroke-width="1.5"/>
      <text x="0" y="28" font-family="monospace" font-size="11" letter-spacing="3" fill="#988e72">30D HIGH</text>
      <text x="0" y="68" font-family="Georgia, serif" font-size="32" fill="#988e72">$481.57</text>
      <text x="0" y="90" font-family="monospace" font-size="13" fill="#c05a5a">현재 −14.6%</text>
    </g>
    <!-- 30일 저점 -->
    <g transform="translate(870, 0)">
      <line x1="0" y1="0" x2="50" y2="0" stroke="#d8b878" stroke-width="1.5"/>
      <text x="0" y="28" font-family="monospace" font-size="11" letter-spacing="3" fill="#988e72">30D LOW</text>
      <text x="0" y="68" font-family="Georgia, serif" font-size="32" fill="#988e72">$372.10</text>
      <text x="0" y="90" font-family="monospace" font-size="13" fill="#6ba368">현재 +10.6%</text>
    </g>
  </g>

  <line x1="80" y1="700" x2="1200" y2="700" stroke="#d8b878" stroke-width="0.5" stroke-opacity="0.4"/>
</svg>
